<?xml version="1.0" encoding="UTF-8"?>
<svg xmlns="http://www.w3.org/2000/svg" xmlns:xlink="http://www.w3.org/1999/xlink" width="512" height="512" viewBox="0 0 512 512"><defs><linearGradient id="a" data-name="New Gradient Swatch 1" x1="4.001" y1="480.696" x2="510.062" y2="-25.365" gradientUnits="userSpaceOnUse"><stop offset="0" stop-color="#003f8a"/><stop offset="0.518" stop-color="#00d7df"/><stop offset="1" stop-color="#006df0"/></linearGradient><linearGradient id="b" x1="-8.695" y1="468" x2="497.366" y2="-38.061" xlink:href="#a"/></defs><g><path d="M480,56H32A24.032,24.032,0,0,0,8,80V352a24.032,24.032,0,0,0,24,24H197.39l-11.42,40H152a8,8,0,0,0-8,8v16H80a8,8,0,0,0,0,16H432a8,8,0,0,0,0-16H368V424a8,8,0,0,0-8-8H326.03l-11.42-40H480a24.032,24.032,0,0,0,24-24V80A24.032,24.032,0,0,0,480,56ZM352,432v8H160v-8ZM202.61,416l11.42-40h83.94l11.42,40ZM488,352a8.011,8.011,0,0,1-8,8H32a8.011,8.011,0,0,1-8-8V336H488Zm0-32H24V80a8.011,8.011,0,0,1,8-8H480a8.011,8.011,0,0,1,8,8Z" fill="url(#a)"/><path d="M384,201.38V160a8,8,0,0,0-4.62-7.25l-120-56a7.991,7.991,0,0,0-6.76,0l-120,56a8,8,0,0,0,0,14.5L176,187.49V280a8,8,0,0,0,8,8H328a8,8,0,0,0,8-8V187.49l32-14.93v28.82a24,24,0,1,0,16,0ZM320,272H192V194.96l60.62,28.29a7.991,7.991,0,0,0,6.76,0L320,194.96Zm-64-64.83L154.92,160,256,112.83,357.08,160ZM376,232a8,8,0,1,1,8-8A8.011,8.011,0,0,1,376,232Z" fill="url(#b)"/></g></svg>