<?xml version="1.0" encoding="windows-1252"?>
<!-- Generator: Adobe Illustrator 19.0.0, SVG Export Plug-In . SVG Version: 6.00 Build 0)  -->
<svg version="1.1" id="Capa_1" xmlns="http://www.w3.org/2000/svg" xmlns:xlink="http://www.w3.org/1999/xlink" x="0px" y="0px" viewBox="0 0 494.95 494.95" style="enable-background:new 0 0 494.95 494.95;" xml:space="preserve">
<g>
	
		<linearGradient id="SVGID_1_" gradientUnits="userSpaceOnUse" x1="-17.8829" y1="670.5942" x2="-17.8829" y2="610.9772" gradientTransform="matrix(8.5333 0 0 -8.5333 369.1337 5721.9961)">
		<stop offset="0" style="stop-color:#FC5C7D"/>
		<stop offset="0.129" style="stop-color:#F35E85"/>
		<stop offset="0.343" style="stop-color:#D9659B"/>
		<stop offset="0.616" style="stop-color:#B070BF"/>
		<stop offset="0.934" style="stop-color:#777FF0"/>
		<stop offset="1" style="stop-color:#6A82FB"/>
	</linearGradient>
	<path style="fill:url(#SVGID_1_);" d="M247.475,447.515c-39.689,0.862-79.13-6.391-115.908-21.333l-7.117,15.514   c38.98,16.077,80.87,23.868,123.025,22.886c20.48,0.051,40.926-1.587,61.141-4.898l-2.816-16.836   C286.524,446.005,267.017,447.566,247.475,447.515z"/>
	
		<linearGradient id="SVGID_2_" gradientUnits="userSpaceOnUse" x1="-31.3709" y1="670.5942" x2="-31.3709" y2="610.9772" gradientTransform="matrix(8.5333 0 0 -8.5333 369.1337 5721.9961)">
		<stop offset="0" style="stop-color:#FC5C7D"/>
		<stop offset="0.129" style="stop-color:#F35E85"/>
		<stop offset="0.343" style="stop-color:#D9659B"/>
		<stop offset="0.616" style="stop-color:#B070BF"/>
		<stop offset="0.934" style="stop-color:#777FF0"/>
		<stop offset="1" style="stop-color:#6A82FB"/>
	</linearGradient>
	<path style="fill:url(#SVGID_2_);" d="M100.531,404.345l-13.312,10.684c5.436,6.537,11.861,12.177,19.046,16.717l9.387-14.268   C109.96,413.911,104.866,409.482,100.531,404.345z"/>
	
		<linearGradient id="SVGID_3_" gradientUnits="userSpaceOnUse" x1="-14.2568" y1="670.5942" x2="-14.2568" y2="610.9772" gradientTransform="matrix(8.5333 0 0 -8.5333 369.1337 5721.9961)">
		<stop offset="0" style="stop-color:#FC5C7D"/>
		<stop offset="0.129" style="stop-color:#F35E85"/>
		<stop offset="0.343" style="stop-color:#D9659B"/>
		<stop offset="0.616" style="stop-color:#B070BF"/>
		<stop offset="0.934" style="stop-color:#777FF0"/>
		<stop offset="1" style="stop-color:#6A82FB"/>
	</linearGradient>
	<path style="fill:url(#SVGID_3_);" d="M490.223,158.278L251.29,38.811c-2.398-1.203-5.231-1.203-7.629,0L4.727,158.278   c-4.215,2.099-5.931,7.228-3.831,11.443c0.828,1.655,2.167,3.004,3.831,3.831l89.148,44.57v135.526   c0,43.068,67.473,76.8,153.6,76.8s153.6-33.732,153.6-76.8V218.122l42.667-21.333v115.763c-13.286,4.651-20.284,19.2-15.633,32.478   c1.263,3.618,3.328,6.895,6.042,9.609l-15.36,38.511c-1.749,4.378,0.384,9.344,4.762,11.093c0.998,0.401,2.057,0.606,3.123,0.606   h51.2c4.71,0,8.533-3.814,8.533-8.533c0-1.084-0.205-2.159-0.606-3.166l-15.36-38.511c9.95-9.958,9.95-26.095-0.009-36.045   c-2.714-2.714-6.007-4.779-9.626-6.042V188.255l29.414-14.66c4.215-2.099,5.931-7.228,3.831-11.443   c-0.828-1.655-2.167-3.004-3.831-3.831L490.223,158.278L490.223,158.278z M384.009,353.648c0,28.851-54.861,59.733-136.533,59.733   S110.942,382.5,110.942,353.648V346.6c25.284,24.653,76.297,41.182,136.533,41.182s111.249-16.529,136.533-41.182V353.648z    M384.009,310.982c0,28.851-54.861,59.733-136.533,59.733s-136.533-30.882-136.533-59.733v-84.326l132.719,66.406   c2.398,1.203,5.231,1.203,7.629,0l132.719-66.406V310.982z M452.275,328.048c4.71,0,8.533,3.823,8.533,8.533   c0,4.71-3.823,8.533-8.533,8.533s-8.533-3.823-8.533-8.533C443.742,331.871,447.565,328.048,452.275,328.048z M465.271,387.782   h-25.993l10.351-25.865c0.853,0.085,1.707,0.264,2.645,0.264s1.766-0.179,2.645-0.264L465.271,387.782z M450.671,174.244   l-162.679-16.265c-5.342-10.436-20.89-17.664-40.516-17.664c-24.329,0-42.667,11.008-42.667,25.6c0,14.592,18.338,25.6,42.667,25.6   c18.867,0,34.014-6.665,39.919-16.444l134.682,13.466l-174.601,87.305L27.622,165.915L247.475,55.989l219.853,109.926   L450.671,174.244z M273.075,165.915c0,2.125-9.079,8.533-25.6,8.533c-16.521,0-25.6-6.409-25.6-8.533   c0-2.125,9.079-8.533,25.6-8.533C263.996,157.382,273.075,163.79,273.075,165.915z"/>
	
		<linearGradient id="SVGID_4_" gradientUnits="userSpaceOnUse" x1="9.7436" y1="670.5942" x2="9.7436" y2="610.9772" gradientTransform="matrix(8.5333 0 0 -8.5333 369.1337 5721.9961)">
		<stop offset="0" style="stop-color:#FC5C7D"/>
		<stop offset="0.129" style="stop-color:#F35E85"/>
		<stop offset="0.343" style="stop-color:#D9659B"/>
		<stop offset="0.616" style="stop-color:#B070BF"/>
		<stop offset="0.934" style="stop-color:#777FF0"/>
		<stop offset="1" style="stop-color:#6A82FB"/>
	</linearGradient>
	<polygon style="fill:url(#SVGID_4_);" points="439.927,118.077 447.565,102.811 464.631,111.344 456.994,126.611  "/>
	
		<linearGradient id="SVGID_5_" gradientUnits="userSpaceOnUse" x1="-0.7564" y1="670.5942" x2="-0.7564" y2="610.9772" gradientTransform="matrix(8.5333 0 0 -8.5333 369.1337 5721.9961)">
		<stop offset="0" style="stop-color:#FC5C7D"/>
		<stop offset="0.129" style="stop-color:#F35E85"/>
		<stop offset="0.343" style="stop-color:#D9659B"/>
		<stop offset="0.616" style="stop-color:#B070BF"/>
		<stop offset="0.934" style="stop-color:#777FF0"/>
		<stop offset="1" style="stop-color:#6A82FB"/>
	</linearGradient>
	<polygon style="fill:url(#SVGID_5_);" points="294.861,45.552 302.49,30.286 430.498,94.286 422.861,109.552  "/>
</g>
<g>
</g>
<g>
</g>
<g>
</g>
<g>
</g>
<g>
</g>
<g>
</g>
<g>
</g>
<g>
</g>
<g>
</g>
<g>
</g>
<g>
</g>
<g>
</g>
<g>
</g>
<g>
</g>
<g>
</g>
</svg>