<svg xmlns="http://www.w3.org/2000/svg" xmlns:xlink="http://www.w3.org/1999/xlink" viewBox="0 0 1096 668"><defs><style>.a{opacity:0.7;}.aq,.b,.c,.k{opacity:0.5;}.b{fill:url(#a);}.c{fill:url(#b);}.d{opacity:0.6;}.e{fill:url(#c);}.ae,.f{opacity:0.4;}.f{fill:url(#d);}.g{fill:url(#e);}.av,.aw,.ay,.ca,.cc,.dm,.h,.k,.n,.o{fill:#fff;}.h{opacity:0.71;}.i{fill:url(#f);}.j{fill:url(#g);}.l{fill:url(#h);}.m{opacity:0.85;}.o{opacity:0.62;}.p{fill:url(#i);}.q{fill:url(#j);}.r{fill:url(#k);}.s{fill:url(#l);}.t{fill:url(#m);}.u{fill:url(#n);}.v{fill:url(#o);}.w{fill:url(#p);}.x{fill:url(#q);}.y{fill:url(#r);}.z{fill:url(#s);}.aa{fill:url(#t);}.ab{fill:url(#u);}.ac{fill:url(#v);}.ad{fill:url(#w);}.af{fill:url(#x);}.ag{fill:url(#y);}.ah{fill:url(#z);}.ai{fill:url(#aa);}.aj{fill:url(#ab);}.ak{fill:url(#ac);}.al{fill:url(#ad);}.am{fill:url(#ae);}.an{fill:url(#af);}.ao{fill:url(#ag);}.ap{fill:url(#ah);}.ar{fill:url(#ai);}.as{fill:url(#aj);}.at{fill:url(#ak);}.au{fill:url(#al);}.av{opacity:0.65;}.aw,.cf,.dt{opacity:0.3;}.ax{fill:url(#am);}.ay,.bc{opacity:0.64;}.az{fill:url(#an);}.ba{fill:url(#ao);}.bb{fill:url(#ap);}.bd{fill:url(#aq);}.be{fill:url(#ar);}.bf{fill:url(#as);}.bg{fill:url(#at);}.bh{fill:url(#au);}.bi{fill:url(#av);}.bj{fill:url(#aw);}.bk{fill:url(#ax);}.bl{fill:url(#ay);}.bm{fill:url(#az);}.bn{fill:url(#ba);}.bo{fill:url(#bb);}.bp{fill:url(#bc);}.bq{fill:url(#bd);}.br{fill:url(#be);}.bs{fill:url(#bf);}.bt{fill:url(#bg);}.bu{fill:url(#bh);}.bv{fill:url(#bi);}.bw{fill:url(#bj);}.bx{fill:url(#bk);}.by{fill:url(#bl);}.bz{fill:url(#bm);}.ca{opacity:0.37;}.cb{fill:url(#bn);}.cc{opacity:0.75;}.cd{fill:url(#bo);}.ce{fill:url(#bp);}.cf{fill:url(#bq);}.cg,.ch{opacity:0.63;}.cg{fill:url(#br);}.ch{fill:url(#bs);}.ci{fill:url(#bt);}.cj{fill:url(#bu);}.ck{fill:url(#bv);}.cl{fill:url(#bw);}.cm{fill:#ce41a4;}.cn{fill:url(#bx);}.co{fill:url(#by);}.cp{fill:url(#bz);}.cq{fill:url(#ca);}.cr{fill:url(#cb);}.cs{fill:url(#cc);}.ct{fill:url(#cd);}.cu{fill:url(#ce);}.cv{fill:url(#cf);}.cw{fill:url(#cg);}.cx{fill:url(#ch);}.cy{fill:url(#ci);}.cz{fill:url(#cj);}.da{fill:url(#ck);}.db{fill:url(#cl);}.dc{fill:url(#cm);}.dd{fill:url(#cn);}.de{fill:url(#co);}.df{fill:url(#cp);}.dg{fill:url(#cq);}.dh{fill:url(#cr);}.di{fill:url(#cs);}.dj{fill:url(#ct);}.dk{fill:url(#cu);}.dl{fill:url(#cv);}.dm{opacity:0.15;}.dn{fill:url(#cw);}.do{fill:url(#cx);}.dp{fill:url(#cy);}.dq{fill:url(#cz);}.dr{fill:url(#da);}.ds{fill:url(#db);}.dt{fill:url(#dc);}</style><linearGradient id="a" x1="7.69" y1="328.82" x2="1043.78" y2="328.82" gradientUnits="userSpaceOnUse"><stop offset="0" stop-color="#b37cff"/><stop offset="1" stop-color="#f895e7"/></linearGradient><linearGradient id="b" x1="59.86" y1="342.51" x2="991.61" y2="342.51" xlink:href="#a"/><linearGradient id="c" x1="-187.44" y1="548.44" x2="-13.58" y2="548.44" gradientTransform="matrix(0.98, -0.19, 0.19, 0.98, 182.43, -65.54)" gradientUnits="userSpaceOnUse"><stop offset="0" stop-color="#a737d5"/><stop offset="1" stop-color="#ef497a"/></linearGradient><linearGradient id="d" x1="241.95" y1="376.14" x2="-112.77" y2="-1.61" gradientTransform="matrix(0.98, 0.18, -0.18, 0.98, 50.31, 78.51)" xlink:href="#c"/><linearGradient id="e" x1="262.91" y1="524.04" x2="587.68" y2="524.04" gradientTransform="matrix(0.98, 0.18, -0.18, 0.98, -168.49, -94.61)" xlink:href="#c"/><linearGradient id="f" x1="398.21" y1="393.73" x2="110.35" y2="612.9" gradientUnits="userSpaceOnUse"><stop offset="0" stop-color="#53d8ff"/><stop offset="1" stop-color="#3840f7"/></linearGradient><linearGradient id="g" x1="107.2" y1="676.41" x2="435.35" y2="284.66" xlink:href="#f"/><linearGradient id="h" x1="227.4" y1="516.16" x2="311.06" y2="217.92" xlink:href="#f"/><linearGradient id="i" x1="187.75" y1="459.6" x2="99.75" y2="564.93" xlink:href="#f"/><linearGradient id="j" x1="244.73" y1="485.57" x2="224.42" y2="505.34" gradientTransform="translate(-4.1 -31.2) rotate(0.38)" gradientUnits="userSpaceOnUse"><stop offset="0" stop-color="#2b3582"/><stop offset="1" stop-color="#150e42"/></linearGradient><linearGradient id="k" x1="238.78" y1="488.75" x2="212.41" y2="528.58" gradientTransform="matrix(0.7, 0.71, -0.71, 0.7, 415.33, -48.53)" xlink:href="#j"/><linearGradient id="l" x1="220.62" y1="465.71" x2="220.71" y2="465.71" gradientTransform="matrix(1, 0, 0, 1, 0, 0)" xlink:href="#j"/><linearGradient id="m" x1="221.26" y1="462.12" x2="227.65" y2="462.12" gradientTransform="matrix(1, 0, 0, 1, 0, 0)" xlink:href="#j"/><linearGradient id="n" x1="245" y1="525.86" x2="224.68" y2="545.63" xlink:href="#j"/><linearGradient id="o" x1="239.04" y1="529.04" x2="212.68" y2="568.87" xlink:href="#j"/><linearGradient id="p" x1="220.62" y1="506" x2="220.71" y2="506" gradientTransform="matrix(1, 0, 0, 1, 0, 0)" xlink:href="#j"/><linearGradient id="q" x1="221.26" y1="502.41" x2="227.65" y2="502.41" gradientTransform="matrix(1, 0, 0, 1, 0, 0)" xlink:href="#j"/><linearGradient id="r" x1="245.26" y1="566.15" x2="224.95" y2="585.92" xlink:href="#j"/><linearGradient id="s" x1="239.31" y1="569.33" x2="212.95" y2="609.15" gradientTransform="matrix(0.7, 0.71, -0.71, 0.7, 472.31, -24.93)" xlink:href="#j"/><linearGradient id="t" x1="220.62" y1="546.29" x2="220.71" y2="546.29" gradientTransform="matrix(1, 0, 0, 1, 0, 0)" xlink:href="#j"/><linearGradient id="u" x1="221.26" y1="542.7" x2="227.65" y2="542.7" gradientTransform="matrix(1, 0, 0, 1, 0, 0)" xlink:href="#j"/><linearGradient id="v" x1="293.82" y1="525.66" x2="131.82" y2="779.66" xlink:href="#f"/><linearGradient id="w" x1="-225.99" y1="477.81" x2="-228.26" y2="483.73" gradientTransform="matrix(-0.98, -0.19, -0.19, 0.98, 196.17, 22.52)" xlink:href="#c"/><linearGradient id="x" x1="1212.53" y1="439.38" x2="1490.14" y2="439.38" gradientTransform="matrix(-0.98, -0.19, -0.19, 0.98, 1633.57, 160.45)" xlink:href="#c"/><linearGradient id="y" x1="230.53" y1="152.69" x2="387.86" y2="496.02" xlink:href="#f"/><linearGradient id="z" x1="-2505.13" y1="505.26" x2="-2161.28" y2="505.26" gradientTransform="matrix(-0.98, 0.19, 0.19, 0.98, -1460.95, 478.11)" xlink:href="#c"/><linearGradient id="aa" x1="750.43" y1="694.08" x2="748.16" y2="700" gradientTransform="translate(-83.53 22.52) rotate(-10.96)" xlink:href="#c"/><linearGradient id="ab" x1="520.01" y1="332.5" x2="797.62" y2="332.5" gradientTransform="translate(179.07 160.45) rotate(-10.96)" xlink:href="#c"/><linearGradient id="ac" x1="838.9" y1="481.71" x2="837.41" y2="485.6" gradientTransform="translate(70.86 -5.35) rotate(6.75)" xlink:href="#c"/><linearGradient id="ad" x1="998.32" y1="456.56" x2="1180.97" y2="456.56" gradientTransform="translate(-76.02 -114.2) rotate(6.75)" xlink:href="#c"/><linearGradient id="ae" x1="808.54" y1="623.74" x2="955.84" y2="623.74" gradientTransform="translate(-83.53 22.52) rotate(-10.96)" xlink:href="#c"/><linearGradient id="af" x1="452.73" y1="585.31" x2="601.19" y2="139.93" gradientTransform="matrix(1, 0, 0, 1, 0, 0)" xlink:href="#j"/><linearGradient id="ag" x1="487.92" y1="608.09" x2="555.04" y2="50.61" gradientUnits="userSpaceOnUse"><stop offset="0" stop-color="#fdf53f"/><stop offset="1" stop-color="#5aac31"/></linearGradient><linearGradient id="ah" x1="633.53" y1="628.1" x2="47.06" y2="623.6" gradientTransform="matrix(1, 0, 0, 1, 0, 0)" xlink:href="#j"/><linearGradient id="ai" x1="841.05" y1="228.74" x2="995.27" y2="228.74" xlink:href="#f"/><linearGradient id="aj" x1="811.69" y1="46.11" x2="831.19" y2="190.69" xlink:href="#f"/><linearGradient id="ak" x1="713.1" y1="515.92" x2="896.77" y2="515.92" gradientTransform="matrix(1, 0, 0, 1, 0, 0)" xlink:href="#j"/><linearGradient id="al" x1="602.73" y1="692.41" x2="1106.73" y2="222.41" xlink:href="#ag"/><linearGradient id="am" x1="567.5" y1="485.38" x2="233.66" y2="1002.39" xlink:href="#f"/><linearGradient id="an" x1="538.62" y1="539.61" x2="459.24" y2="614.94" xlink:href="#ag"/><linearGradient id="ao" x1="589.84" y1="544.19" x2="519.38" y2="611.06" xlink:href="#ag"/><linearGradient id="ap" x1="646.91" y1="544.33" x2="576.45" y2="611.2" xlink:href="#ag"/><linearGradient id="aq" x1="248.87" y1="606.15" x2="256.87" y2="605.65" gradientUnits="userSpaceOnUse"><stop offset="0" stop-color="#233894"/><stop offset="1" stop-color="#dd397a"/></linearGradient><linearGradient id="ar" x1="3881" y1="598.36" x2="3888.11" y2="598.36" gradientTransform="translate(-3628.38)" gradientUnits="userSpaceOnUse"><stop offset="0" stop-color="#f9b776"/><stop offset="1" stop-color="#5aac31"/></linearGradient><linearGradient id="as" x1="3913.3" y1="493.39" x2="3845.16" y2="585.74" gradientTransform="translate(-3628.38)" xlink:href="#f"/><linearGradient id="at" x1="253.29" y1="1021.98" x2="348.79" y2="1010.98" gradientTransform="translate(-3628.38)" xlink:href="#aq"/><linearGradient id="au" x1="3855.37" y1="597.99" x2="3861.51" y2="597.99" xlink:href="#ar"/><linearGradient id="av" x1="3901.15" y1="484.43" x2="3833.02" y2="576.78" gradientTransform="translate(-3628.38)" xlink:href="#f"/><linearGradient id="aw" x1="-1531.94" y1="417.36" x2="-1496.93" y2="606.3" gradientTransform="matrix(-1, 0, 0, 1, -1273.1, 0)" xlink:href="#c"/><linearGradient id="ax" x1="-1595.52" y1="400.43" x2="-1486.99" y2="466.79" gradientTransform="matrix(-1, 0, 0, 1, -1273.1, 0)" xlink:href="#ar"/><linearGradient id="ay" x1="-1596.45" y1="374.22" x2="-1583.9" y2="410.07" gradientTransform="matrix(-1, 0, 0, 1, -1273.1, 0)" xlink:href="#ar"/><linearGradient id="az" x1="-1586.81" y1="397.13" x2="-1596.26" y2="378.06" gradientTransform="matrix(-1, 0, 0, 1, -1273.1, 0)" xlink:href="#ar"/><linearGradient id="ba" x1="-1496.61" y1="410.81" x2="-1461.6" y2="599.76" gradientTransform="matrix(-1, 0, 0, 1, -1273.1, 0)" xlink:href="#c"/><linearGradient id="bb" x1="3830.76" y1="464.27" x2="3876.74" y2="464.27" xlink:href="#ar"/><linearGradient id="bc" x1="3890.65" y1="431.58" x2="3915.94" y2="536.93" gradientTransform="translate(-3628.38)" xlink:href="#f"/><linearGradient id="bd" x1="3906.48" y1="414.97" x2="3901.1" y2="438.62" gradientTransform="translate(-3628.38)" xlink:href="#f"/><linearGradient id="be" x1="3903.67" y1="424.89" x2="3901.09" y2="440.34" gradientTransform="translate(-3628.38)" xlink:href="#f"/><linearGradient id="bf" x1="3873.33" y1="459.45" x2="3887.65" y2="459.45" xlink:href="#ar"/><linearGradient id="bg" x1="3866.07" y1="415.11" x2="3884.25" y2="415.11" xlink:href="#ar"/><linearGradient id="bh" x1="-3070.61" y1="562.87" x2="-3077.4" y2="540.46" gradientTransform="matrix(0.75, -0.67, 0.67, 0.75, 2176.05, -2061.07)" xlink:href="#ar"/><linearGradient id="bi" x1="-3076.74" y1="523.83" x2="-3071.05" y2="556.24" gradientTransform="matrix(0.75, -0.67, 0.67, 0.75, 2176.05, -2061.07)" xlink:href="#j"/><linearGradient id="bj" x1="-3077.55" y1="562.76" x2="-3083.67" y2="542.6" gradientTransform="matrix(0.75, -0.67, 0.67, 0.75, 2176.05, -2061.07)" xlink:href="#ar"/><linearGradient id="bk" x1="-2925.49" y1="3.48" x2="-3391.8" y2="702.95" gradientTransform="matrix(-1, 0, 0, 1, -2380.59, 0)" xlink:href="#f"/><linearGradient id="bl" x1="486.97" y1="114.92" x2="123.98" y2="186.91" xlink:href="#ag"/><linearGradient id="bm" x1="293.82" y1="69.61" x2="206.82" y2="218.1" xlink:href="#ag"/><linearGradient id="bn" x1="464.11" y1="277.55" x2="492.73" y2="277.55" gradientTransform="translate(639.39 -251.61) rotate(76.8)" xlink:href="#j"/><linearGradient id="bo" x1="516.59" y1="282.79" x2="456.59" y2="453.46" xlink:href="#f"/><linearGradient id="bp" x1="464.11" y1="150.74" x2="492.73" y2="150.74" gradientTransform="matrix(1, 0, 0, 1, 0, 0)" xlink:href="#j"/><linearGradient id="bq" x1="644.71" y1="192.81" x2="717.33" y2="95.46" xlink:href="#f"/><linearGradient id="br" x1="-1307.43" y1="-3121.03" x2="-1190.98" y2="-3097.27" gradientTransform="matrix(-1, -0.05, -0.05, 1, -899.49, 3139.41)" xlink:href="#f"/><linearGradient id="bs" x1="-1395.52" y1="-3137.52" x2="-1322.11" y2="-3122.55" gradientTransform="matrix(-1, -0.05, -0.05, 1, -899.49, 3139.41)" xlink:href="#f"/><linearGradient id="bt" x1="-3084.91" y1="-1438.84" x2="-3172.07" y2="-1491.67" gradientTransform="matrix(0.96, -0.27, 0.07, 0.93, 3896.5, 570.5)" xlink:href="#f"/><linearGradient id="bu" x1="-3133.29" y1="-1458.38" x2="-3233.03" y2="-1563.85" gradientTransform="matrix(0.96, -0.27, 0.07, 0.93, 3896.5, 570.5)" xlink:href="#f"/><linearGradient id="bv" x1="-3091.27" y1="-1439.72" x2="-3172.7" y2="-1489.07" gradientTransform="matrix(0.96, -0.27, 0.07, 0.93, 3896.5, 570.5)" xlink:href="#f"/><linearGradient id="bw" x1="398.18" y1="-1254.06" x2="435.39" y2="-1264.84" gradientTransform="matrix(-0.96, 0.27, 0.27, 0.96, 1495.03, 1158.99)" xlink:href="#f"/><linearGradient id="bx" x1="20767.08" y1="3927.97" x2="20751.08" y2="4031.97" gradientTransform="matrix(-1, 0, 0, 1, 22119.19, 0)" xlink:href="#f"/><linearGradient id="by" x1="20713.76" y1="3919.77" x2="20697.76" y2="4023.77" gradientTransform="matrix(-1, 0, 0, 1, 22119.19, 0)" xlink:href="#f"/><linearGradient id="bz" x1="21098.41" y1="535.61" x2="21205.43" y2="535.61" gradientTransform="matrix(-1, 0, 0, 1, 22119.19, 0)" gradientUnits="userSpaceOnUse"><stop offset="0" stop-color="#9cfffb"/><stop offset="1" stop-color="#9bfffa"/></linearGradient><linearGradient id="ca" x1="21162.03" y1="535.61" x2="21269.05" y2="535.61" xlink:href="#bz"/><linearGradient id="cb" x1="21195.05" y1="413.85" x2="21295.07" y2="413.85" xlink:href="#bz"/><linearGradient id="cc" x1="21185.66" y1="451.52" x2="21253.49" y2="451.52" xlink:href="#bz"/><linearGradient id="cd" x1="21168.09" y1="497.34" x2="21231.9" y2="497.34" xlink:href="#bz"/><linearGradient id="ce" x1="21149.14" y1="543.16" x2="21212.95" y2="543.16" xlink:href="#bz"/><linearGradient id="cf" x1="21127.25" y1="588.98" x2="21195.08" y2="588.98" xlink:href="#bz"/><linearGradient id="cg" x1="21108.03" y1="634.79" x2="21175.87" y2="634.79" xlink:href="#bz"/><linearGradient id="ch" x1="11171.21" y1="409.91" x2="11194.05" y2="409.91" gradientTransform="matrix(-1, 0, 0, 1, 12031.8, 0)" xlink:href="#f"/><linearGradient id="ci" x1="11171.2" y1="405.43" x2="11193.41" y2="405.43" gradientTransform="matrix(-1, 0, 0, 1, 12031.8, 0)" xlink:href="#j"/><linearGradient id="cj" x1="11173.31" y1="399.18" x2="11179.75" y2="399.18" gradientTransform="matrix(-1, 0, 0, 1, 12031.8, 0)" xlink:href="#ar"/><linearGradient id="ck" x1="11125.66" y1="409.42" x2="11134.42" y2="409.42" gradientTransform="matrix(-1, 0, 0, 1, 12031.8, 0)" xlink:href="#f"/><linearGradient id="cl" x1="11125.72" y1="402.67" x2="11138.57" y2="402.67" gradientTransform="matrix(-1, 0, 0, 1, 12031.8, 0)" xlink:href="#j"/><linearGradient id="cm" x1="11132.4" y1="393.82" x2="11140.09" y2="393.82" gradientTransform="matrix(-1, 0, 0, 1, 12031.8, 0)" xlink:href="#ar"/><linearGradient id="cn" x1="8803.66" y1="400.64" x2="8915.15" y2="246.5" gradientTransform="matrix(-1, 0, 0, 1, 9698.8, 0)" gradientUnits="userSpaceOnUse"><stop offset="0" stop-color="#fdf53f"/><stop offset="0.66" stop-color="#5aac31"/><stop offset="1" stop-color="#5aac31"/></linearGradient><linearGradient id="co" x1="10274.86" y1="-251.83" x2="10342.21" y2="-212.92" gradientTransform="matrix(-1, 0, 0, 1, 12031.8, 0)" xlink:href="#c"/><linearGradient id="cp" x1="11158.32" y1="365.33" x2="11162.01" y2="357.96" gradientTransform="matrix(-1, 0, 0, 1, 12031.8, 0)" xlink:href="#cn"/><linearGradient id="cq" x1="11167.64" y1="281.71" x2="11140.26" y2="305.96" gradientTransform="matrix(-1, 0, 0, 1, 12031.8, 0)" xlink:href="#ar"/><linearGradient id="cr" x1="10275.24" y1="-252.48" x2="10342.58" y2="-213.57" gradientTransform="matrix(-1, 0, 0, 1, 12031.8, 0)" xlink:href="#c"/><linearGradient id="cs" x1="10283.84" y1="-267.38" x2="10351.18" y2="-228.47" gradientTransform="matrix(-1, 0, 0, 1, 12031.8, 0)" xlink:href="#c"/><linearGradient id="ct" x1="11218.96" y1="284.01" x2="11240.52" y2="284.01" gradientTransform="matrix(-1, 0, 0, 1, 12031.8, 0)" xlink:href="#ar"/><linearGradient id="cu" x1="11198" y1="226.39" x2="11197.77" y2="266.65" gradientTransform="matrix(-1, 0, 0, 1, 12031.8, 0)" xlink:href="#ar"/><linearGradient id="cv" x1="11138.07" y1="299.8" x2="11250.98" y2="299.8" gradientTransform="matrix(-1, 0, 0, 1, 12031.8, 0)" xlink:href="#j"/><linearGradient id="cw" x1="11238.92" y1="249.74" x2="11354.24" y2="249.74" gradientTransform="matrix(-1, 0, 0, 1, 12031.8, 0)" xlink:href="#j"/><linearGradient id="cx" x1="11178.45" y1="293.92" x2="11151.07" y2="318.17" gradientTransform="matrix(-1, 0, 0, 1, 12031.8, 0)" xlink:href="#ar"/><linearGradient id="cy" x1="11238.23" y1="281.48" x2="11245.95" y2="281.48" gradientTransform="matrix(-1, 0, 0, 1, 12031.8, 0)" xlink:href="#ar"/><linearGradient id="cz" x1="8874.53" y1="222.61" x2="8855.15" y2="237.45" gradientTransform="matrix(-1, 0, 0, 1, 9698.8, 0)" xlink:href="#ar"/><linearGradient id="da" x1="8860.92" y1="210.91" x2="8878.47" y2="233.5" gradientTransform="matrix(-1, 0, 0, 1, 9698.8, 0)" xlink:href="#j"/><linearGradient id="db" x1="8872.13" y1="219.47" x2="8852.75" y2="234.3" gradientTransform="matrix(-1, 0, 0, 1, 9698.8, 0)" xlink:href="#ar"/><linearGradient id="dc" x1="595.13" y1="206.67" x2="637.66" y2="108.37" xlink:href="#f"/></defs><title>illustration-Service-web</title><g class="a"><path class="b" d="M516.76,643.55S165,647.48,67,559,5.87,382.15,80.9,357.14s87.83-51,47.46-86.08S36.71,164,121.85,91.63,304.13,123.2,380.22,109.4s45.95-60.27,146-28.18,78-61.35,158.45-69.83,72.2,97.21,154.95,57.32,150.43-34.39,186,29,20.13,148.68-57.92,199.53-69.67,47.38-40.5,97.35,55.32,214.28-77.46,237.75S516.76,643.55,516.76,643.55Z"/><path class="c" d="M517.67,632.7s-316.37,3.63-404.49-78-55-163,12.52-186.06,79-47,42.68-79.37S86,190.53,162.52,123.82s163.92,29.11,232.35,16.38,41.33-55.57,131.32-26,70.15-56.57,142.5-64.38S733.62,139.46,808,102.68,943.31,71,975.3,129.39s18.1,137.08-52.09,184S860.56,357,886.79,403.11s49.75,197.58-69.66,219.22S517.67,632.7,517.67,632.7Z"/></g><g class="d"><path class="e" d="M300.81,607.46a2.24,2.24,0,0,0-1.7-3.55c-19.82-.7-102.64-7.94-99.43-80.56,3.66-82.47,9.73-105.94-29-134.06C135.51,363.68,104.58,367.14,80.5,379a1.8,1.8,0,0,0,.79,3.4C97.4,382.25,134.3,385,148,411c17.67,33.75,16.16,117.72,52.25,157.2,35.66,39,66.13,37.81,98.71,40.14a2.16,2.16,0,0,0,1.9-.89Z"/></g><path class="f" d="M34.81,332a3.67,3.67,0,0,1,.78-6.08c6.52-3.11,18.19-10.17,29.69-24.59S106,256.25,152.4,274s47,105,41.54,190S276.87,596,276.87,596l23.4,14.32s-86.75-30.72-109.63-99.2-.43-163.93-55.5-172.27C82.29,330.83,69.38,361.05,34.81,332Z"/><g class="d"><path class="g" d="M8.54,425.05a3.13,3.13,0,0,1-2.93-5.15c11.27-13,36.1-36.33,65.75-30.12,40.63,8.52,67.29,32.54,94.38,105.88C192.07,567,275,605.12,298.4,610a2.32,2.32,0,0,1,1.82,2.34h0a2.31,2.31,0,0,1-2.81,2.22c-16.37-3.82-102.17-24.92-141.75-56.12C114.1,525.65,64.74,413.37,8.54,425.05Z"/></g><path class="h" d="M36.1,409.26a67.16,67.16,0,0,1,21.65-1.48c1.81.12,3.61.39,5.41.62s3.59.58,5.36,1A77.77,77.77,0,0,1,79,412.51a93.72,93.72,0,0,1,35.62,24.54c9.87,10.7,17.56,23.17,23.9,36.15,1.52,3.28,3,6.59,4.46,9.88s2.79,6.59,4.31,9.82l2.24,4.87,2.34,4.82c1.53,3.24,3.24,6.37,4.87,9.55,3.42,6.27,7,12.46,10.9,18.42a194.17,194.17,0,0,0,12.68,17.19,149.16,149.16,0,0,0,31.57,28.56,176.34,176.34,0,0,0,18.49,10.76c6.38,3.22,12.92,6.13,19.54,8.88,13.23,5.48,26.81,10.17,40.31,15a.34.34,0,0,1,.21.44.33.33,0,0,1-.43.21c-6.82-2.24-13.64-4.48-20.43-6.82s-13.57-4.75-20.26-7.38a208.76,208.76,0,0,1-38.65-19.29,146.81,146.81,0,0,1-32.38-28.69,195.5,195.5,0,0,1-13-17.38c-4-6-7.63-12.26-11.11-18.58-1.67-3.2-3.41-6.36-5-9.61L146.84,499l-2.28-4.9c-1.56-3.26-2.93-6.58-4.4-9.87s-2.88-6.53-4.37-9.77c-6.19-12.81-13.69-25.06-23.27-35.54a105.62,105.62,0,0,0-15.79-14.17,85.67,85.67,0,0,0-18.56-10.18,85.49,85.49,0,0,0-10.12-3.2c-1.71-.46-3.46-.77-5.2-1.12s-3.5-.58-5.27-.74A75.42,75.42,0,0,0,47,409.14a58.79,58.79,0,0,0-10.54,1.22h0a.57.57,0,0,1-.27-1.11Z"/><path class="h" d="M39.35,327.84a31.06,31.06,0,0,0,7.28.24,39.66,39.66,0,0,0,7.19-1.18,41.81,41.81,0,0,0,13.12-6.1,50.09,50.09,0,0,0,5.63-4.56,57.73,57.73,0,0,0,4.92-5.33c.75-1,1.5-1.9,2.21-2.88l2.12-3a54.72,54.72,0,0,1,4.87-5.85A76.06,76.06,0,0,1,111.5,282a57.33,57.33,0,0,1,14.72-4,48.27,48.27,0,0,1,7.7-.34,41.35,41.35,0,0,1,7.66,1.09c1.26.28,2.49.68,3.73,1.07s2.42.9,3.59,1.46a40.37,40.37,0,0,1,6.69,3.86,51.57,51.57,0,0,1,11,10.64c6.2,8.07,10.47,17.32,13.69,26.77a148.32,148.32,0,0,1,4.1,14.4c1.16,4.85,2.1,9.74,2.9,14.64,1.52,9.83,2.58,19.71,3.11,29.61a.45.45,0,0,1-.43.48.46.46,0,0,1-.49-.41c-1.09-9.83-2.39-19.63-4.3-29.3-1-4.83-2-9.65-3.27-14.4s-2.65-9.46-4.34-14.06c-3.36-9.18-7.61-18.1-13.58-25.69a55.56,55.56,0,0,0-4.83-5.33,43.4,43.4,0,0,0-5.49-4.56,37.39,37.39,0,0,0-6.17-3.53c-1.06-.51-2.18-.91-3.28-1.32s-2.26-.71-3.41-1a40.37,40.37,0,0,0-7-1,44.64,44.64,0,0,0-7.12.28,53.85,53.85,0,0,0-13.86,3.71,73.92,73.92,0,0,0-24,16A49.78,49.78,0,0,0,84,306.61l-2.2,3c-.77,1-1.56,2-2.38,2.95A61.63,61.63,0,0,1,74.15,318a51.75,51.75,0,0,1-6.05,4.59,43.09,43.09,0,0,1-13.93,5.78,35.57,35.57,0,0,1-15,.23.39.39,0,0,1-.29-.45.38.38,0,0,1,.43-.29Z"/><path class="i" d="M88.16,393.36l325.37-5.49c13.1-.22,23.61,11,22.84,24.4l-11.2,192.59a19.84,19.84,0,0,1-19.41,18.9L93,626.86A14.44,14.44,0,0,1,78.6,612.8l-7.48-201A17.58,17.58,0,0,1,88.16,393.36Z"/><path class="j" d="M93.15,398.27,410,393a21.93,21.93,0,0,1,22.24,23.22L421.36,599.49a19.12,19.12,0,0,1-18.9,18l-304.6,2.95a13.9,13.9,0,0,1-14-13.38L76.55,415.8A16.89,16.89,0,0,1,93.15,398.27Z"/><path class="k" d="M99.07,404.59l301.75-5A20.85,20.85,0,0,1,422,421.71L411.61,596.2a18.2,18.2,0,0,1-18,17.12l-290,2.8a13.23,13.23,0,0,1-13.35-12.73L83.27,421.28A16.08,16.08,0,0,1,99.07,404.59Z"/><path class="l" d="M410.76,392.89,92.55,398.14a17,17,0,0,0-16.67,17.61l.52,13.48H432.32l.77-13A22,22,0,0,0,410.76,392.89Z"/><g class="m"><path class="n" d="M102.56,404.66a2.86,2.86,0,1,1-2.86-2.86A2.86,2.86,0,0,1,102.56,404.66Z"/><path class="n" d="M102.56,413a2.86,2.86,0,1,1-2.86-2.86A2.87,2.87,0,0,1,102.56,413Z"/><path class="n" d="M102.56,421.43a2.86,2.86,0,1,1-2.86-2.86A2.86,2.86,0,0,1,102.56,421.43Z"/></g><circle class="o" cx="153.18" cy="500.98" r="45.36" transform="translate(-369.74 532.51) rotate(-76.45)"/><circle class="p" cx="153.18" cy="500.98" r="10"/><path class="n" d="M177.49,517.36a29.14,29.14,0,1,1-24.09-45.52c.49,0,1,0,1.46,0v-7.39c-.48,0-1,0-1.46,0a36.52,36.52,0,1,0,30.07,57.23Z"/><path class="q" d="M233.19,466.48a6.65,6.65,0,1,1-6.6-6.69A6.65,6.65,0,0,1,233.19,466.48Z"/><circle class="r" cx="226.54" cy="466.44" r="6.43" transform="translate(-263.47 296.81) rotate(-45)"/><path class="s" d="M220.62,466.08c0-.25,0-.5.09-.74Z"/><path class="t" d="M221.26,463.73a5.92,5.92,0,0,1,5.32-3.22,5.39,5.39,0,0,1,1.07.1Z"/><path class="u" d="M233.19,506.77a6.65,6.65,0,1,1-6.6-6.69A6.65,6.65,0,0,1,233.19,506.77Z"/><path class="v" d="M233,506.77a6.43,6.43,0,1,1-6.39-6.47A6.42,6.42,0,0,1,233,506.77Z"/><path class="w" d="M220.62,506.37c0-.25,0-.5.09-.74Z"/><path class="x" d="M221.26,504a5.92,5.92,0,0,1,5.32-3.22,5.39,5.39,0,0,1,1.07.1Z"/><path class="y" d="M233.19,547.06a6.65,6.65,0,1,1-6.6-6.69A6.65,6.65,0,0,1,233.19,547.06Z"/><circle class="z" cx="226.54" cy="547.02" r="6.43" transform="translate(-320.45 320.41) rotate(-45)"/><path class="aa" d="M220.62,546.66c0-.25,0-.5.09-.74Z"/><path class="ab" d="M221.26,544.31a5.92,5.92,0,0,1,5.32-3.22,5.39,5.39,0,0,1,1.07.1Z"/><path class="o" d="M243.41,466.13l0,1.14c.09,3.06,2,5.49,4.34,5.5L377.1,473c2.42,0,4.38-2.55,4.37-5.72h0c0-3.1-1.9-5.63-4.27-5.7l-129.35-1.4C245.35,460.16,243.32,462.86,243.41,466.13Z"/><path class="o" d="M243.41,506.23l0,1.13c.09,3.06,2,5.5,4.34,5.51l129.32.27c2.42,0,4.38-2.56,4.37-5.72h0c0-3.11-1.9-5.64-4.27-5.7l-129.35-1.4C245.35,500.25,243.32,503,243.41,506.23Z"/><path class="o" d="M243.41,546.32l0,1.13c.09,3.07,2,5.5,4.34,5.51l129.32.27c2.42,0,4.38-2.55,4.37-5.72h0c0-3.1-1.9-5.63-4.27-5.7l-129.35-1.4C245.35,540.34,243.32,543.05,243.41,546.32Z"/><path class="ac" d="M389.41,577.93l-277.62,4.92a8,8,0,0,0-7.77,9.28l1.22,7.66a8,8,0,0,0,8,6.76l275.17-1.09a8,8,0,0,0,7.94-7.17l1.23-11.5A8,8,0,0,0,389.41,577.93Z"/><path class="ad" d="M328.9,540.1c-1.1-1.07-2.24-2.27-3.52-3.66l-1.2-1.31,1.7.52c1.43.44,2.88.81,4.33,1.11l.54.11-1.31,3.77Zm-1.63-3c.61.65,1.2,1.25,1.76,1.82l.45-1.29C328.74,537.43,328,537.25,327.27,537.06Z"/><g class="ae"><path class="af" d="M128.21,136.63c13.33,20.87,35.15,36.66,56.88,49.56,28.42,16.88,59.33,31.92,79.59,58,21.16,27.27,27.78,63.18,28.62,97.7s-3.42,69.09-1.05,103.53c2.25,32.76,11.43,66.59,33.49,90.66-21.46-6.59-36.46-28-42-50.06-5.88-23.57-3.27-48.28-2.16-72.54s.4-49.72-11.21-71c-22.8-41.85-78.11-53.32-110.91-87.89-17-17.88-27.14-41.33-32.73-65.34-3.81-16.36-5.63-33.08-6.81-49.86A4.49,4.49,0,0,1,128.21,136.63Z"/></g><path class="ag" d="M210.84,277.55l-2-172.63a15.73,15.73,0,0,1,18.09-15.73l46.85,7.09a15.74,15.74,0,0,1,13.38,15.56V269.23Z"/><g class="d"><path class="ah" d="M1081.28,452.64a3.3,3.3,0,0,0,3-5.48c-12.08-13.68-38.65-38-70-31.1-42.91,9.51-70.85,35.26-98.65,113.24-27,75.8-114.35,117.22-139.07,122.64a2.42,2.42,0,0,0-1.9,2.49h0a2.45,2.45,0,0,0,3,2.32c17.29-4.24,107.88-27.62,149.41-61.13C970.73,560.44,1021.64,441,1081.28,452.64Z"/></g><path class="h" d="M1051.56,437.55a62.64,62.64,0,0,0-11.15-1.13,79.51,79.51,0,0,0-11.23.59c-1.86.2-3.7.55-5.55.86s-3.67.75-5.47,1.27a85.7,85.7,0,0,0-30.1,14.52,112.08,112.08,0,0,0-16.47,15.16c-10,11.19-17.77,24.24-24.15,37.85-1.54,3.45-3,6.89-4.5,10.38s-2.94,7.05-4.55,10.51L936,532.78,933.56,538c-1.61,3.46-3.42,6.83-5.15,10.24-3.62,6.74-7.39,13.4-11.56,19.83a210.36,210.36,0,0,1-13.54,18.58,155.23,155.23,0,0,1-34,30.78c-12.76,8.51-26.61,15.2-40.75,20.86S800,648.8,785.58,653.67a.44.44,0,0,1-.3-.82c14.23-5.36,28.54-10.52,42.47-16.51s27.55-12.7,40-21.29a158,158,0,0,0,33-30.6,205.51,205.51,0,0,0,13.19-18.33c4.07-6.35,7.75-13,11.29-19.62,1.68-3.38,3.45-6.72,5-10.16l2.42-5.13,2.3-5.18c1.57-3.44,3-7,4.44-10.45s3-7,4.61-10.52c6.57-13.84,14.59-27.16,24.93-38.63A99.33,99.33,0,0,1,1006.47,440a83.69,83.69,0,0,1,11.07-3.39c1.87-.47,3.77-.78,5.67-1.13s3.81-.57,5.74-.71a70.8,70.8,0,0,1,23,1.38.72.72,0,0,1,.54.88.73.73,0,0,1-.86.54Z"/><path class="ai" d="M783,567.36l-1.31-3.77.54-.12a43.58,43.58,0,0,0,4.33-1.1l1.7-.52-1.2,1.31c-1.27,1.39-2.42,2.59-3.51,3.66Zm0-3.05.44,1.28c.57-.57,1.15-1.17,1.76-1.81C784.4,564,783.66,564.15,782.93,564.31Z"/><g class="ae"><path class="aj" d="M984.19,163.35C970.87,184.22,949,200,927.31,212.91c-28.42,16.88-59.32,31.92-79.59,58-21.16,27.28-27.78,63.19-28.62,97.71s3.42,69.08,1,103.53c-2.25,32.76-11.43,66.58-33.49,90.65,21.47-6.58,36.46-28,42-50.06,5.87-23.56,3.26-48.27,2.15-72.53s-.4-49.72,11.22-71c22.79-41.85,78.1-53.32,110.9-87.89,17-17.88,27.14-41.34,32.74-65.34,3.81-16.37,5.63-33.08,6.8-49.86A4.49,4.49,0,0,0,984.19,163.35Z"/></g><path class="ak" d="M844.77,575l-.06-2.63.36,0c1,.1,1.95.16,2.93.17l1.17,0-1,.58c-1.08.61-2,1.13-2.94,1.59Zm.59-1.92,0,.89c.47-.24,1-.5,1.47-.79C846.35,573.11,845.85,573.08,845.36,573Z"/><g class="ae"><path class="al" d="M1051.74,362c-12.53,10.42-29.37,15.95-45.57,19.69-21.19,4.89-43.57,8.14-61.5,20.45C926,415,914.61,436.16,907.18,457.62s-11.67,44-20,65.11c-8,20.08-20.49,39.45-39.13,50.12,14.77.17,28.45-10.23,36.32-23,8.4-13.59,11.71-29.6,15.86-45s9.7-31.25,21.25-42.29c22.66-21.67,59.63-17.79,87.1-32.9,14.21-7.81,25.28-20.47,33.59-34.41a208.16,208.16,0,0,0,14.24-29.88A3,3,0,0,0,1051.74,362Z"/></g><path class="am" d="M948.2,343.69a125,125,0,0,0-14.57-18.86,2.64,2.64,0,0,0-4.6,1.84c.2,10.26-4.66,20.68-11,29.08C910,366.44,899.51,375.22,892,386.28c-15.56,22.76-17,52.35-13.7,79.72s10.92,54.27,11.49,81.83c.28,13.14-1.14,26.62-6.83,38.47-5.59,11.63-15.8,21.54-28.35,24.44a.6.6,0,0,0-.44.81h0a.59.59,0,0,0,.48.39c16,2.48,31.63-9.62,37.91-24.6s5.12-32.22,2.39-48.34-6.9-32.23-6.18-48.57A82.38,82.38,0,0,1,905,445c8.92-11.9,20.87-21.12,31.25-31.77s19.56-23.67,20.6-38.51C957.6,363.82,953.85,353,948.2,343.69Z"/><path class="k" d="M934.58,347.61a33.35,33.35,0,0,1-.48,4.48c-.25,1.47-.55,2.94-.92,4.39a62.37,62.37,0,0,1-2.76,8.53c-.52,1.41-1.16,2.75-1.76,4.13-.29.69-.65,1.35-1,2l-1,2c-.72,1.31-1.48,2.6-2.22,3.9L922,380.84c-.86,1.23-1.75,2.43-2.63,3.65-.42.61-.91,1.18-1.37,1.77L916.62,388c-.93,1.19-1.91,2.28-2.87,3.41l-2.87,3.37a163.76,163.76,0,0,0-10.81,13.93,82.88,82.88,0,0,0-8.24,15.43c-1.18,2.68-2,5.49-2.91,8.27-.7,2.85-1.53,5.66-2,8.57a140.22,140.22,0,0,0-2.08,17.5c-.12,2.95-.19,5.9-.27,8.85l.09,8.85h0a.44.44,0,0,1-.42.43.43.43,0,0,1-.42-.4c-.74-11.82-.63-23.78,1.43-35.55a82.66,82.66,0,0,1,13.07-33.13,169.22,169.22,0,0,1,10.88-14.16c1.88-2.29,3.86-4.52,5.7-6.79l1.39-1.7c.45-.57.94-1.13,1.36-1.73.86-1.18,1.74-2.35,2.58-3.54l2.42-3.66c.75-1.25,1.51-2.5,2.24-3.77s1.42-2.55,2.06-3.87,1.31-2.62,1.86-4a76,76,0,0,0,3-8.24c.43-1.4.81-2.81,1.13-4.24a40.37,40.37,0,0,0,.76-4.3v0a.41.41,0,0,1,.46-.37A.42.42,0,0,1,934.58,347.61Z"/><path class="an" d="M836.06,601.47a11.65,11.65,0,0,1-11.62,11.61H195.85a11.65,11.65,0,0,1-11.63-11.61L179,240.24c0-6.39,7.53-18.86,21.32-17.92l614.33-15.9a29.29,29.29,0,0,1,30.06,30Z"/><path class="ao" d="M824.59,590.33a11,11,0,0,1-11,11H211a11,11,0,0,1-11-11L195.07,262.4c.58-19.74,17.89-26.83,28.37-26.41l588.8-15.8a20.54,20.54,0,0,1,21.1,21.07Z"/><path class="n" d="M206.52,433.93a1,1,0,0,1-1-1l-.39-26.59a1,1,0,0,1,1-1h0a1,1,0,0,1,1,1l.39,26.59a1,1,0,0,1-1,1Z"/><path class="n" d="M205.56,368.75a1,1,0,0,1-1-1l-1.49-101.86c0-6.83,2.14-12.29,6.26-16.25,7.5-7.18,19.23-6.83,19.72-6.8l188-5.05a1,1,0,0,1,1,1,1,1,0,0,1-1,1l-188.07,5.05c-.54,0-11.44-.36-18.33,6.25-3.72,3.56-5.62,8.54-5.65,14.79l1.49,101.84a1,1,0,0,1-1,1Z"/><path class="k" d="M226.56,572.14C227.19,545,227,305,225.4,284.29s30.73-24.61,80.29-27,467.76-11.57,478.53-12.44c24.2-2,29.21,34.22,26.79,112.75-1.82,59-4.83,156.2-6.22,200.9a24.67,24.67,0,0,1-24.61,23.91c-100.63.28-486.34,1.38-512,2.15C238.62,585.49,226.31,582.88,226.56,572.14Z"/><path class="ap" d="M871.19,643.07H161.84A15.91,15.91,0,0,1,146,627.2h0a15.91,15.91,0,0,1,15.87-15.87H871.19a15.91,15.91,0,0,1,15.87,15.87h0A15.91,15.91,0,0,1,871.19,643.07Z"/><g class="aq"><path class="n" d="M957.48,321.76a1,1,0,0,1-.38-1.92c1.21-.51,2.43-1,3.62-1.6a1,1,0,1,1,.84,1.81c-1.21.57-2.45,1.12-3.69,1.63A.91.91,0,0,1,957.48,321.76Z"/><path class="n" d="M918.84,329.48h-1.28a1,1,0,0,1,0-2h0c2.57,0,5.16,0,7.71-.2a1,1,0,0,1,1.07.93,1,1,0,0,1-.94,1.06C923.25,329.41,921,329.48,918.84,329.48Zm-13.88-1h-.14c-2.59-.36-5.19-.84-7.75-1.4a1,1,0,1,1,.44-2c2.5.55,5,1,7.59,1.37a1,1,0,0,1-.14,2Zm33-.85a1,1,0,0,1-.18-2c2.51-.48,5-1.07,7.51-1.75a1,1,0,1,1,.53,1.92c-2.52.7-5.1,1.3-7.67,1.79A.58.58,0,0,1,937.92,327.66Zm-52.79-4.07a1,1,0,0,1-.34-.06c-2.46-.88-4.92-1.88-7.3-3a1,1,0,1,1,.83-1.82c2.33,1.06,4.74,2,7.15,2.9a1,1,0,0,1-.34,1.94Zm-18.41-8.87a1,1,0,0,1-.52-.15c-2.22-1.36-4.42-2.84-6.54-4.38a1,1,0,0,1-.22-1.39,1,1,0,0,1,1.4-.22c2.07,1.51,4.23,2.95,6.41,4.29a1,1,0,0,1-.53,1.85ZM850.5,302.3a1,1,0,0,1-.68-.27c-1.9-1.79-3.76-3.68-5.52-5.61a1,1,0,0,1,.07-1.42,1,1,0,0,1,1.41.07c1.73,1.9,3.55,3.75,5.41,5.51a1,1,0,0,1,0,1.41A1,1,0,0,1,850.5,302.3Zm-13.35-15.44a1,1,0,0,1-.82-.43c-1.5-2.14-2.94-4.36-4.26-6.61a1,1,0,1,1,1.72-1c1.3,2.2,2.7,4.39,4.17,6.49a1,1,0,0,1-.24,1.39A1,1,0,0,1,837.15,286.86ZM827.21,269a1,1,0,0,1-.92-.61c-1-2.4-2-4.87-2.81-7.35a1,1,0,0,1,1.89-.64c.82,2.43,1.75,4.85,2.76,7.21a1,1,0,0,1-.53,1.31A1,1,0,0,1,827.21,269Zm-6.07-19.5a1,1,0,0,1-1-.8c-.51-2.56-.93-5.17-1.25-7.77a1,1,0,1,1,2-.24c.31,2.54.73,5.11,1.23,7.61a1,1,0,0,1-.78,1.18Zm-2-20.33h0a1,1,0,0,1-1-1c0-2.62.12-5.26.33-7.86a1,1,0,0,1,2,.16c-.21,2.55-.32,5.14-.33,7.71A1,1,0,0,1,819.16,229.19Zm2.17-20.31a.76.76,0,0,1-.21,0,1,1,0,0,1-.77-1.18c.55-2.56,1.2-5.13,1.94-7.63a1,1,0,1,1,1.92.57c-.73,2.45-1.37,5-1.9,7.47A1,1,0,0,1,821.33,208.88Z"/><path class="n" d="M827.64,189.38a1,1,0,0,1-.4-.08,1,1,0,0,1-.51-1.32c.54-1.22,1.11-2.45,1.71-3.66a1,1,0,1,1,1.79.88c-.58,1.18-1.14,2.39-1.67,3.59A1,1,0,0,1,827.64,189.38Z"/><path class="n" d="M884.55,136a1,1,0,0,1-.34-1.94c1.26-.46,2.54-.9,3.82-1.31a1,1,0,0,1,1.25.64,1,1,0,0,1-.64,1.26c-1.25.4-2.51.84-3.74,1.29A1.07,1.07,0,0,1,884.55,136Z"/><path class="n" d="M1013.16,262.64a1,1,0,0,1-.33-.06,1,1,0,0,1-.61-1.27c.83-2.37,1.58-4.81,2.23-7.26a1,1,0,1,1,1.93.52c-.66,2.49-1.42,5-2.27,7.4A1,1,0,0,1,1013.16,262.64Zm4.69-19.54h-.13a1,1,0,0,1-.86-1.13c.34-2.49.58-5,.72-7.56a1,1,0,0,1,2,.12c-.15,2.57-.4,5.16-.74,7.71A1,1,0,0,1,1017.85,243.1Zm.66-20.1a1,1,0,0,1-1-.93c0-.49-.07-1-.11-1.47-.16-2-.39-4.07-.68-6.08a1,1,0,1,1,2-.28c.29,2,.53,4.13.7,6.2,0,.5.07,1,.11,1.5a1,1,0,0,1-.93,1.06Zm-3.34-19.81a1,1,0,0,1-1-.74c-.66-2.43-1.43-4.86-2.28-7.24a1,1,0,0,1,.6-1.27,1,1,0,0,1,1.28.6c.87,2.42,1.65,4.9,2.33,7.38a1,1,0,0,1-.7,1.23A1.17,1.17,0,0,1,1015.17,203.19Zm-7.25-18.74a1,1,0,0,1-.89-.55c-1.15-2.25-2.39-4.47-3.7-6.62a1,1,0,0,1,.33-1.38,1,1,0,0,1,1.37.34c1.34,2.19,2.61,4.46,3.78,6.75a1,1,0,0,1-.44,1.35A1,1,0,0,1,1007.92,184.45ZM997,167.56a1,1,0,0,1-.78-.38c-1.57-2-3.24-3.91-5-5.75a1,1,0,0,1,1.46-1.36c1.75,1.88,3.45,3.85,5.06,5.86a1,1,0,0,1-.79,1.63Zm-14-14.38a1,1,0,0,1-.64-.23c-1.94-1.62-4-3.19-6-4.65a1,1,0,0,1,1.17-1.63c2.09,1.49,4.15,3.09,6.12,4.74a1,1,0,0,1,.12,1.41A1,1,0,0,1,983,153.18Zm-16.63-11.3a1.07,1.07,0,0,1-.48-.12c-2.21-1.2-4.5-2.33-6.81-3.35a1,1,0,0,1-.5-1.32,1,1,0,0,1,1.32-.51c2.35,1,4.69,2.2,7,3.42a1,1,0,0,1-.48,1.88Zm-18.56-7.74a1,1,0,0,1-.29,0c-2.41-.73-4.89-1.38-7.35-1.92a1,1,0,0,1,.43-2c2.51.55,5,1.21,7.5,2a1,1,0,0,1-.29,2Zm-47.41-2.51a1,1,0,0,1-.19-2c2.53-.48,5.1-.86,7.66-1.14a1,1,0,1,1,.22,2c-2.51.27-5,.65-7.51,1.11A.55.55,0,0,1,900.41,131.63Zm27.68-1.32H928c-2.5-.23-5-.36-7.58-.39a1,1,0,0,1-1-1,1,1,0,0,1,1-1c2.58,0,5.19.17,7.73.4a1,1,0,0,1-.09,2Z"/><path class="n" d="M1006.43,277.72a.91.91,0,0,1-.48-.13,1,1,0,0,1-.4-1.36c.63-1.14,1.25-2.32,1.84-3.5a1,1,0,0,1,1.34-.45,1,1,0,0,1,.45,1.34c-.6,1.21-1.23,2.41-1.88,3.58A1,1,0,0,1,1006.43,277.72Z"/><path class="ar" d="M981,273.76a1.2,1.2,0,0,0,.16-1.38l-7-12.77A63.77,63.77,0,0,0,981,240.23l13.51-5.43a1.18,1.18,0,0,0,.75-1.17l-.87-17.46a1.21,1.21,0,0,0-.87-1.09l-14-4.06a63.32,63.32,0,0,0-8.82-18.58L976.44,179a1.2,1.2,0,0,0-.3-1.36l-13-11.73a1.2,1.2,0,0,0-1.38-.16l-12.77,7a63.77,63.77,0,0,0-19.38-6.92l-5.43-13.51a1.18,1.18,0,0,0-1.17-.75l-17.46.87a1.21,1.21,0,0,0-1.09.87l-4.06,14a63.32,63.32,0,0,0-18.58,8.82l-13.41-5.72a1.2,1.2,0,0,0-1.36.3l-11.73,13a1.21,1.21,0,0,0-.16,1.38l7,12.77a63.49,63.49,0,0,0-6.91,19.38l-13.52,5.43a1.18,1.18,0,0,0-.75,1.17l.87,17.46a1.21,1.21,0,0,0,.87,1.09l14,4.06A63.44,63.44,0,0,0,865.6,265l-5.72,13.41a1.2,1.2,0,0,0,.3,1.36l13,11.73a1.21,1.21,0,0,0,1.38.16l12.77-7a63.49,63.49,0,0,0,19.38,6.91l5.43,13.52a1.18,1.18,0,0,0,1.17.75l17.46-.87a1.21,1.21,0,0,0,1.09-.87l4.06-14a63.58,63.58,0,0,0,18.58-8.82L967.87,287a1.2,1.2,0,0,0,1.36-.3Z"/><path class="n" d="M918.17,245.77a17,17,0,1,1,15-9.05,17,17,0,0,1-15,9.05Zm0-31.06a14,14,0,1,0,13.42,9.92A13.93,13.93,0,0,0,918.15,214.71Z"/><path class="n" d="M917.84,272.21a43.75,43.75,0,0,1-43.61-41.51c0-.74-.06-1.48-.06-2.21a43.69,43.69,0,0,1,87.33-2.16c0,.73.06,1.47.06,2.21a43.89,43.89,0,0,1-.58,7.07l-3-.48a40.32,40.32,0,0,0,.54-6.59c0-.69,0-1.38-.06-2.06h0a40.73,40.73,0,0,0-42.11-38.63l-.56,0a40.73,40.73,0,0,0-38.66,40.61c0,.68,0,1.37.06,2.06a40.7,40.7,0,0,0,63.25,31.8l1.67,2.49a43.64,43.64,0,0,1-22.1,7.31C919.31,272.19,918.57,272.21,917.84,272.21Z"/><path class="as" d="M861,158.45l-4.49-6.82a35.56,35.56,0,0,0,3-11.13l7.31-3.63a.69.69,0,0,0,.37-.69L866,126.47a.66.66,0,0,0-.53-.57l-8-1.65a35.58,35.58,0,0,0-5.76-10l2.6-7.75a.67.67,0,0,0-.22-.74l-7.77-6a.68.68,0,0,0-.77,0l-6.82,4.5a35.72,35.72,0,0,0-11.13-3L823.92,94a.65.65,0,0,0-.68-.37l-9.72,1.26a.68.68,0,0,0-.57.53l-1.64,8a35.47,35.47,0,0,0-10,5.75l-7.74-2.6a.68.68,0,0,0-.75.23l-6,7.76a.66.66,0,0,0,0,.78l4.49,6.82a35.56,35.56,0,0,0-3,11.13L781,136.88a.68.68,0,0,0-.37.69l1.27,9.71a.65.65,0,0,0,.53.57l8,1.65a35.75,35.75,0,0,0,5.75,10l-2.6,7.74a.66.66,0,0,0,.23.74l7.76,6a.69.69,0,0,0,.78,0l6.82-4.5a35.72,35.72,0,0,0,11.13,3l3.64,7.3a.65.65,0,0,0,.68.37l9.72-1.26a.68.68,0,0,0,.57-.53l1.64-8a35.75,35.75,0,0,0,10-5.75l7.74,2.6A.68.68,0,0,0,855,167l6-7.76A.66.66,0,0,0,861,158.45Z"/><path class="n" d="M823.93,147.08a10.24,10.24,0,0,1-9.48-6.45,10.2,10.2,0,1,1,19-7.51h0a10.21,10.21,0,0,1-9.48,14Zm0-17.4a7.18,7.18,0,0,0-6.68,9.84,7.2,7.2,0,0,0,9.34,4,7.18,7.18,0,0,0,4-9.34h0A7.19,7.19,0,0,0,823.92,129.68Z"/><path class="n" d="M855.92,179.53a1,1,0,0,1-.79-.39,1,1,0,0,1,.18-1.4c1-.79,2.05-1.64,3-2.51a1,1,0,1,1,1.33,1.49c-1,.91-2.06,1.78-3.13,2.6A1,1,0,0,1,855.92,179.53Z"/><path class="n" d="M823.36,190.4h0a53.09,53.09,0,0,1-8.34-.75,1,1,0,1,1,.34-2,51.53,51.53,0,0,0,8,.72,1,1,0,0,1,0,2Zm13.24-1.56a1,1,0,0,1-.24-2,53,53,0,0,0,6.51-2.09l1.14-.47a1,1,0,0,1,.77,1.85l-1.18.48a54.24,54.24,0,0,1-6.76,2.17A1,1,0,0,1,836.6,188.84Zm-34.18-3.05a1,1,0,0,1-.4-.09,53.32,53.32,0,0,1-7.35-4,1,1,0,0,1-.29-1.38,1,1,0,0,1,1.38-.29,53.21,53.21,0,0,0,7.07,3.86,1,1,0,0,1-.41,1.91Zm-17.36-12.57a1,1,0,0,1-.74-.33,53.09,53.09,0,0,1-5.13-6.61,1,1,0,0,1,.29-1.39,1,1,0,0,1,1.38.29,52.62,52.62,0,0,0,4.94,6.37,1,1,0,0,1-.07,1.41A1,1,0,0,1,785.06,173.22Zm-10.87-18.47a1,1,0,0,1-1-.68,53,53,0,0,1-2.07-8.11,1,1,0,1,1,2-.34,53.23,53.23,0,0,0,2,7.81,1,1,0,0,1-.62,1.27A1.25,1.25,0,0,1,774.19,154.75Z"/><path class="n" d="M771.58,133.42h-.09a1,1,0,0,1-.91-1.08c.12-1.34.29-2.7.51-4a1,1,0,1,1,2,.32c-.21,1.29-.37,2.6-.48,3.89A1,1,0,0,1,771.58,133.42Z"/><path class="n" d="M792.27,96a1,1,0,0,1-.8-.4,1,1,0,0,1,.2-1.4c1.08-.82,2.21-1.6,3.35-2.33a1,1,0,0,1,1.38.3,1,1,0,0,1-.31,1.38c-1.09.71-2.18,1.46-3.22,2.24A1,1,0,0,1,792.27,96Z"/><path class="n" d="M876.07,131.59a1,1,0,0,1-1-.88,51.77,51.77,0,0,0-1.56-7.78,1,1,0,1,1,1.92-.54,51.84,51.84,0,0,1,1.62,8.08,1,1,0,0,1-.87,1.11Zm-6.68-20a1,1,0,0,1-.87-.5,51.36,51.36,0,0,0-4.47-6.54,1,1,0,1,1,1.55-1.25,53.68,53.68,0,0,1,4.66,6.79,1,1,0,0,1-.87,1.5Zm-14-15.76a1,1,0,0,1-.6-.2,51.71,51.71,0,0,0-6.69-4.24,1,1,0,1,1,.93-1.77A53.44,53.44,0,0,1,856,94a1,1,0,0,1-.6,1.8Zm-48-7.8a1,1,0,0,1-.32-2,53,53,0,0,1,8-2,1,1,0,0,1,1.16.82,1,1,0,0,1-.83,1.15A51.47,51.47,0,0,0,807.71,88,1.12,1.12,0,0,1,807.4,88Zm28.91-1.19a.9.9,0,0,1-.23,0,50.72,50.72,0,0,0-7.83-1.28,1,1,0,0,1-.91-1.09,1,1,0,0,1,1.08-.91,53.41,53.41,0,0,1,8.13,1.33,1,1,0,0,1-.24,2Z"/><path class="n" d="M875.32,148.69a.76.76,0,0,1-.21,0,1,1,0,0,1-.77-1.18c.27-1.28.49-2.58.66-3.87a1,1,0,0,1,1.13-.86,1,1,0,0,1,.85,1.13c-.17,1.33-.4,2.68-.69,4A1,1,0,0,1,875.32,148.69Z"/><path class="n" d="M823.74,161.9A25.17,25.17,0,0,1,798.83,140a24.17,24.17,0,0,1-.22-3.27,25.14,25.14,0,0,1,50.07-3.22,25.54,25.54,0,0,1,.22,3.27c0,.7,0,1.39-.09,2.08l-3-.25c0-.61.08-1.22.08-1.83a23.09,23.09,0,0,0-.19-2.88,22.14,22.14,0,0,0-44.1,2.81,22.15,22.15,0,0,0,25,22,22.11,22.11,0,0,0,10.87-4.58l1.86,2.35a25.17,25.17,0,0,1-12.34,5.2A25.84,25.84,0,0,1,823.74,161.9Z"/></g><path class="n" d="M470.67,455.67l-57-41.74,57.12-46.36a3.85,3.85,0,1,0-4.86-6l-61,49.5a3.86,3.86,0,0,0,.15,6.1l61,44.7a3.86,3.86,0,0,0,4.56-6.22Z"/><path class="n" d="M591.52,411.09l-61-49.5a3.85,3.85,0,1,0-4.86,6l57.12,46.36-57,41.74a3.86,3.86,0,0,0,4.56,6.22l61-44.7a3.86,3.86,0,0,0,.15-6.1Z"/><path class="n" d="M509,350.64a3.84,3.84,0,0,0-4.49,3.07L482,473.44a3.86,3.86,0,0,0,3.07,4.5,3.71,3.71,0,0,0,1.41,0,3.83,3.83,0,0,0,3.09-3.08l22.53-119.72A3.85,3.85,0,0,0,509,350.64Z"/><path class="at" d="M716.11,387.32c-1,45.63-4.1,203-2.61,258.81.16,5.91,4.21,10.65,9.26,10.84,25,1,116.56,3.38,157.43,1.38,8.51-.42,15.28-8.49,15.45-18.45.85-47.89,2.72-182.61-1.73-244.32-.53-7.39-5.49-13.28-11.8-14-27.21-3.18-119.19-11-154.49-8.28C721.26,373.76,716.27,379.86,716.11,387.32Z"/><path class="au" d="M727.26,401.32C725.91,438.15,721.67,560.68,723,606c.19,6.62,4.65,12,10.31,12.36,23.28,1.6,102.71,5.11,136.86,1.91,6.15-.57,11-6.39,11.31-13.6,1.73-37.57,6.7-151.66,5.41-196.46-.21-7.15-4.94-13-11-13.63-25.19-2.64-109.59-8.94-138.61-7.09C731.82,389.83,727.49,395,727.26,401.32Z"/><path class="av" d="M790.64,653c-6.2,0-11.24-5.83-11.24-13s5-13,11.24-13,11.24,5.82,11.24,13S796.84,653,790.64,653Zm0-24c-5.09,0-9.24,4.92-9.24,11s4.15,11,9.24,11,9.24-4.93,9.24-11S795.74,629,790.64,629Z"/><path class="k" d="M777.85,381.25h0a2.49,2.49,0,0,0,2.13,2.63c5.9.36,22.52,1.38,29.95,1.89a2.51,2.51,0,0,0,2.33-3.13l0-.29a2.42,2.42,0,0,0-2-2.12c-5-.54-20.17-2-30.21-1.61A2.48,2.48,0,0,0,777.85,381.25Z"/><path class="aw" d="M872,465l.29-43.22c0-5.21-3.31-9.61-7.63-9.93l-112-8.47c-4.55-.34-8.31,3.86-8.51,9.34,0,0-5.13,129.94-5.13,131.52h0l-1.83,51c-.21,5.48,3.4,10.1,8,10.24l117.56,3.6c4.55.14,8.32-4.4,8.36-9.88l.55-80.21h0l.36-54Z"/><path class="n" d="M787.56,530.92l-36.51-26.75,36.6-29.71a2.47,2.47,0,0,0-3.11-3.83l-39.08,31.72a2.44,2.44,0,0,0-.91,2,2.47,2.47,0,0,0,1,1.93l39.08,28.64a2.47,2.47,0,0,0,2.92-4Z"/><path class="n" d="M865,502.35l-39.08-31.72a2.47,2.47,0,1,0-3.11,3.83l36.6,29.71-36.5,26.75a2.47,2.47,0,0,0,1.46,4.46,2.5,2.5,0,0,0,1.46-.48l39.08-28.64a2.46,2.46,0,0,0,.09-3.91Z"/><path class="n" d="M812.15,463.62a2.48,2.48,0,0,0-2.89,2L794.83,542.3a2.47,2.47,0,1,0,4.85.92l14.44-76.72A2.47,2.47,0,0,0,812.15,463.62Z"/><path class="ax" d="M324.14,533.28l341.67-1.49a5.86,5.86,0,0,1,5.91,5.88L671,657.27a5.85,5.85,0,0,1-6,5.82c-30.13-.9-338.92-4.86-344.83-4.62s-2.66-94.2-1.79-119.54A5.85,5.85,0,0,1,324.14,533.28Z"/><path class="n" d="M665.14,658.41h0c-19.25-.58-203.75-2.88-292.42-4l-49.28-.62H323l-.08-.41c-2.09-11.82-2.06-51.34.11-114.3a1.17,1.17,0,0,1,1.16-1.13l341.67-1.49a1.16,1.16,0,0,1,.84.34,1.12,1.12,0,0,1,.34.84l-.73,119.59A1.16,1.16,0,0,1,665.14,658.41Zm-341.31-5.6,48.86.61c88.67,1.11,273.18,3.41,292.44,4h0a.17.17,0,0,0,.14-.17l.73-119.6a.15.15,0,0,0,0-.12.14.14,0,0,0-.13,0L324.19,539a.17.17,0,0,0-.17.17C321.88,601.31,321.82,640.57,323.83,652.81Z"/><path class="ay" d="M338.76,564.16h0c0,3.24,1.08,5.86,2.41,5.86H472c1.34,0,2.41-2.62,2.41-5.86h0c0-3.23-1.07-5.85-2.41-5.85H341.17C339.84,558.31,338.76,560.93,338.76,564.16Z"/><path class="ay" d="M338.76,584.13h0c0,3.23,1.08,5.85,2.41,5.85H472c1.34,0,2.41-2.62,2.41-5.85h0c0-3.24-1.07-5.86-2.41-5.86H341.17C339.84,578.27,338.76,580.89,338.76,584.13Z"/><path class="ay" d="M338.76,604.09h0c0,3.23,1.08,5.86,2.41,5.86H472c1.34,0,2.41-2.63,2.41-5.86h0c0-3.23-1.07-5.86-2.41-5.86H341.17C339.84,598.23,338.76,600.86,338.76,604.09Z"/><path class="ay" d="M338.76,624.05h0c0,3.24,1.08,5.86,2.41,5.86H472c1.34,0,2.41-2.62,2.41-5.86h0c0-3.23-1.07-5.85-2.41-5.85H341.17C339.84,618.2,338.76,620.82,338.76,624.05Z"/><circle class="n" cx="507.61" cy="568.29" r="22.77" transform="translate(-161.27 933.28) rotate(-76.85)"/><circle class="n" cx="564.19" cy="568.29" r="22.77" transform="translate(-236.59 565.39) rotate(-45)"/><circle class="n" cx="620.77" cy="569.04" r="22.77"/><path class="az" d="M521.14,563.48a14.62,14.62,0,1,1-13.53-9.07l.74,0v-3.71h-.74A18.31,18.31,0,1,0,524.54,562Z"/><path class="ba" d="M571.74,581.41a14.63,14.63,0,1,1-7.8-27l.74,0v-3.71h-.74a18.33,18.33,0,1,0,9.63,33.92Z"/><path class="bb" d="M633,577.26a14.63,14.63,0,1,1-12.1-22.85l.74,0v-3.71h-.74A18.33,18.33,0,1,0,636,579.43Z"/><g class="bc"><path class="n" d="M526.16,600.7h-37.1a4.22,4.22,0,0,0,0,8.43h37.1a4.22,4.22,0,1,0,0-8.43Z"/><path class="n" d="M582.74,600.7h-37.1a4.22,4.22,0,0,0,0,8.43h37.1a4.22,4.22,0,1,0,0-8.43Z"/><path class="n" d="M602.22,609.13h37.1a4.22,4.22,0,1,0,0-8.43h-37.1a4.22,4.22,0,0,0,0,8.43Z"/><rect class="n" x="484.85" y="613.82" width="45.53" height="33.26" rx="4.22"/><rect class="n" x="541.43" y="613.82" width="45.53" height="33.26" rx="4.22"/><rect class="n" x="598.01" y="613.82" width="45.53" height="33.26" rx="4.22"/></g><path class="bd" d="M253.3,598.38s-.83,4.69-1.24,9.34a3.22,3.22,0,0,0,3.07,3.47c6.19.26,19.42.76,24.17.55a1,1,0,0,0,.92-1.43h0a2.33,2.33,0,0,0-1.19-1.26l-21.87-10Z"/><path class="be" d="M252.62,595.62l.67,5.62s3.83,1.78,6.44-.23l-1.58-6.26Z"/><path class="bf" d="M253.12,490.05c-.29,1.47-1.54,73.18,6.12,105.31a1.08,1.08,0,0,1-.64,1.27,18.88,18.88,0,0,1-6.24,1.27,1.87,1.87,0,0,1-1.86-1.35c-2.2-7.45-12.69-44.81-14.06-80.5-1.54-39.87,0-1.35,0-1.35l.89-24.65Z"/><path class="bg" d="M228.15,600.83s-1.32,2.37-2.6,8.67a1.94,1.94,0,0,0,1.72,2.33c2,.21,5.19.46,7.71.45a2,2,0,0,0,1.92-2.18,16.35,16.35,0,0,0-3.83-9Z"/><path class="bh" d="M227,593.61l1.55,8.49s1.54,1.14,4.59.31l-.74-9.13Z"/><path class="bi" d="M222.78,492.25c-6.27,37.84,1.36,93.51,3.93,104.41a1.7,1.7,0,0,0,1.38,1.29,11.41,11.41,0,0,0,4.9-.19,1.57,1.57,0,0,0,1.12-1.44c.34-8.81-.28-62.9,5.57-84.27a4.81,4.81,0,0,1,1.87-2.68l11.34-8.06.87-13Z"/><path class="bj" d="M262.73,420.56c-18.79-.31-39.52,4.93-39.52,4.93-5.6,32.68-1,70.37-1,70.37,14.55,3.81,31-2.33,31-2.33,2.42-13.66,13.7-52.1,13.7-52.1a62,62,0,0,0,23-7.29c-4.75-5.51-7-12.51-8-16.65A63.36,63.36,0,0,1,262.73,420.56Z"/><path class="bk" d="M318.23,392.88a3.62,3.62,0,0,0-4.19-1.17c-2.76,11.68-17.26,21.15-32.15,25.78,1,4.14,3.21,11.14,8,16.65C314.57,420.24,318.23,392.88,318.23,392.88Z"/><path class="bl" d="M317.78,393.45c.19.62-2,1.55-3.36-1-.05-1.2-.78-6.36-.06-7.34,3.83-5.22,11.25-11.77,11.25-11.77a1.77,1.77,0,0,1,.23,2.46l-3.61,3.75a17.12,17.12,0,0,1,2.11,4.16,5.06,5.06,0,0,1-.51,3.71,43.13,43.13,0,0,1-2.31,3.78A5,5,0,0,1,317.78,393.45Z"/><path class="bm" d="M320.66,382l-3.28,2.78-1,2.77,2.93,3.25s1-5.5,1.72-6.69S321.34,382.37,320.66,382Z"/><path class="bn" d="M230.42,443.68l-7.21-18.19s-17.55,11.93-20.43,27A41.67,41.67,0,0,1,218,456.62C219.33,449.48,230.42,443.68,230.42,443.68Z"/><path class="bo" d="M245.75,460.8s-19.7,11.14-26.35,1.63a7.49,7.49,0,0,1-1.37-5.81,41.67,41.67,0,0,0-15.25-4.09A20.92,20.92,0,0,0,205,466.84c11.65,21.3,43.32-1.18,43.32-1.18Z"/><path class="bp" d="M243.39,474.89l10.75-37.55a1.08,1.08,0,0,1,.93-.79c1.94-.23,7.59-.87,14.11-1.42,7.85-.66,17-1.2,22.41-.74a1.09,1.09,0,0,1,.9,1.58c-3.1,6.27-15.84,31.76-22.22,40.12a1.1,1.1,0,0,1-.89.43l-24.95-.23A1.1,1.1,0,0,1,243.39,474.89Z"/><path class="bq" d="M270.29,431.88l7.8-1.3a.55.55,0,0,1,.62.72l-.77,2.34a.55.55,0,0,1-.46.38l-7.5,1a.56.56,0,0,1-.62-.68l.48-2A.54.54,0,0,1,270.29,431.88Z"/><path class="br" d="M264.45,438.48l.65-3.35a.75.75,0,0,1,.68-.62l15.75-1.6a.77.77,0,0,1,.83.95l-1,4.17a.78.78,0,0,1-.71.59l-15.39.77A.77.77,0,0,1,264.45,438.48Z"/><path class="bs" d="M246,465.82s-1.49-6.16-.89-8.35,1.78-5,5.68-4.37a57.7,57.7,0,0,1,8.5,2.27,2.23,2.23,0,0,1-3.2,1.93l1.84,1.42s-.26,2.28-2.76,1.06l1.71,1.89a2,2,0,0,1-2.92.67C252.09,461.14,251.21,466.56,246,465.82Z"/><path class="bt" d="M243.7,405.31l-6,17.28a.62.62,0,0,0,.28.75c1.63.9,7.51,3.51,14.58-1a2.91,2.91,0,0,0,1.35-2.09l1.94-15Z"/><path class="bu" d="M256.71,389.3s6.56,12.35,5.72,17.34-9,4.64-16.08.58l-5-13.34Z"/><path class="bv" d="M246.66,400.67a.5.5,0,0,0,.22-.74,13.5,13.5,0,0,1-1.82-3.88s-1.18-.76,3-1.76,10.42-2.55,11.74-6.12-2.09-12.2-7.44-5.24a.51.51,0,0,1-.81,0c-.88-1.14-3.19-3.51-6.4-2.07-3,1.34-3.34,3.54-3.3,4.65a.5.5,0,0,1-.6.52c-1.51-.29-5.15-.54-6.85,3.2-1.4,3.07-.49,4.81.34,5.67a.51.51,0,0,1-.22.84c-1,.3-2.29,1.15-2.16,3.49.18,3.23,3.79,2.94,4.82,2.79a.53.53,0,0,1,.45.16c.88,1,4.86,5.12,9.15,5.62a.51.51,0,0,0,.54-.68l-1.86-5.41a.52.52,0,0,1,.28-.63Z"/><path class="bw" d="M247.41,401.44s-4.67-3.21-5-.51,4.21,3.91,6.47,2.91Z"/><path class="bx" d="M859.31,190.55,567,189.15c-3.52,0-6.38,3.86-6.35,8.66l.64,115.65c0,4.82,3,8.67,6.51,8.53l290.66-6.23c3.38-.14,6.08-3.87,6.12-8.48l1-108C865.63,194.49,862.81,190.58,859.31,190.55Z"/><path class="n" d="M567.6,314.69a1.19,1.19,0,0,1-1.1-1.28l-.64-115.66a1.38,1.38,0,0,1,.26-.87,1,1,0,0,1,.83-.44l292.32,1.41a1,1,0,0,1,.82.44,1.46,1.46,0,0,1,.26.87l-1,108a1.18,1.18,0,0,1-1.05,1.28h0Zm-.66-117.25a.54.54,0,0,0-.08.3l.64,115.66a.43.43,0,0,0,.11.3l290.62-6.23a.38.38,0,0,0,.1-.29l1-108a.45.45,0,0,0-.07-.27Z"/><g class="d"><rect class="n" x="578.84" y="250.32" width="14.23" height="54.36"/><rect class="n" x="602.61" y="269" width="14.23" height="35.68"/><rect class="n" x="626.38" y="222.82" width="14.23" height="81.86"/><rect class="n" x="650.15" y="285.01" width="14.23" height="19.66"/><rect class="n" x="673.92" y="233.77" width="14.23" height="70.91"/><rect class="n" x="697.69" y="246.05" width="14.23" height="58.63"/><rect class="n" x="721.46" y="259.39" width="14.23" height="45.29"/><rect class="n" x="745.23" y="206.28" width="14.23" height="98.4"/><rect class="n" x="769" y="216.69" width="14.23" height="87.99"/><rect class="n" x="792.77" y="232.43" width="14.23" height="72.25"/><rect class="n" x="816.54" y="286.84" width="14.23" height="17.84"/><rect class="n" x="840.31" y="252.18" width="14.23" height="52.5"/></g><path class="by" d="M503,157.42c-2.8-10.72-10.52-28.11-31.43-30.71-27.78-3.45-243.37-5.52-282.11-5.87a7,7,0,0,0-6.95,5.92c-1.43,9.42-3.7,28.3-2,44.11a7,7,0,0,0,7.18,6.24l308.81-10.93A7,7,0,0,0,503,157.42Zm-15.66-.92L196.85,166.78a6.72,6.72,0,0,1-7-6.59,184.41,184.41,0,0,1,1.23-22.45,7.66,7.66,0,0,1,7.69-6.81c114.65,1.07,251.08,3.16,271.5,5.7,10.41,1.3,16.44,7.82,19.95,15A3.41,3.41,0,0,1,487.3,156.5Z"/><path class="bz" d="M196.89,120.17c0,14,.25,48.11,1.8,65.9a6.33,6.33,0,0,0,6.35,5.78c16.26-.1,63-.64,84.86-3.67a6.32,6.32,0,0,0,5.4-5.5c1.49-12,4.83-43.88.83-61a6.36,6.36,0,0,0-5.89-5c-14.87-.68-63.3-2.85-87-2.89A6.35,6.35,0,0,0,196.89,120.17Z"/><path class="ca" d="M216.72,125.23l1.56,49.25a6.74,6.74,0,0,0,6.91,6.53l42.24-1.1a6.74,6.74,0,0,0,6.56-6.74V127.25a6.75,6.75,0,0,0-6.4-6.74l-43.79-2.22A6.74,6.74,0,0,0,216.72,125.23Z"/><rect class="n" x="464.49" y="152.83" width="4" height="122.02"/><rect class="n" x="428.4" y="211.23" width="123.25" height="4" transform="translate(275.12 702.53) rotate(-89.81)"/><circle class="cb" cx="478.42" cy="277.55" r="14.31" transform="translate(98.95 679.95) rotate(-76.8)"/><circle class="cc" cx="478.42" cy="277.55" r="8.5"/><path class="cd" d="M468.59,329.6l-4.9-26.73a9.1,9.1,0,0,1,8.95-10.74h12.17a10.59,10.59,0,0,1,10.56,11.42L493.23,331a12.73,12.73,0,0,1-5,9.15c-4.43,3.36-10.69,10.34-12.05,23.45-2.15,20.77,17.35,27.74,29.35,25.51,9.36-1.75,14.46-13,12.44-21.51a5,5,0,0,1,4.77-6.19h0a4.92,4.92,0,0,1,4.78,3.73c2.35,9.38,5.4,33.56-23.93,38.31-34.73,5.63-68.42-31.39-38.74-61.33A14.19,14.19,0,0,0,468.59,329.6Z"/><circle class="ce" cx="478.42" cy="150.74" r="14.31"/><circle class="cc" cx="478.42" cy="150.74" r="8.5"/><path class="cf" d="M723.42,157.91l-49.3,5.2a10.33,10.33,0,0,1-11.4-10.27V95.94a10.33,10.33,0,0,1,8.85-10.22l49.29-7.1a10.33,10.33,0,0,1,11.8,10.22v58.8A10.32,10.32,0,0,1,723.42,157.91Z"/><path class="n" d="M683.54,147.33a7.31,7.31,0,1,1,7.31-7.31A7.32,7.32,0,0,1,683.54,147.33Zm0-11.72A4.41,4.41,0,1,0,688,140,4.42,4.42,0,0,0,683.54,135.61Z"/><path class="n" d="M683.54,124.43A15.61,15.61,0,0,1,699.13,140c0,.54,0,1.06-.08,1.58a1.07,1.07,0,0,0,1.21,1.18l2.27-.34a1.06,1.06,0,0,0,.9-1c0-.48.05-1,.05-1.44a20,20,0,0,0-19.94-19.94,18.26,18.26,0,0,0-2.46.16,1.06,1.06,0,0,0-.92,1.23l.38,2.21a1.06,1.06,0,0,0,1.17.87A13.83,13.83,0,0,1,683.54,124.43Z"/><path class="n" d="M683.54,113.19A26.86,26.86,0,0,1,710.37,140h0a1.07,1.07,0,0,0,1.21,1.06l2.22-.33.92-1.07a31.21,31.21,0,0,0-31.18-30.85,30.35,30.35,0,0,0-4.39.32,1.05,1.05,0,0,0-.88,1.22l.38,2.2a1,1,0,0,0,1.18.87A26.67,26.67,0,0,1,683.54,113.19Z"/><path class="n" d="M683.54,102a38.11,38.11,0,0,1,38,36.44,1.06,1.06,0,0,0,1.22,1l2.2-.33a1.05,1.05,0,0,0,.91-1.09A42.46,42.46,0,0,0,683.54,97.6a41.88,41.88,0,0,0-6.27.48,1,1,0,0,0-.88,1.23l.37,2.19a1.07,1.07,0,0,0,1.21.87A37.94,37.94,0,0,1,683.54,102Z"/><path class="cg" d="M542.52,91.45c1.81-11.23-8.31-27.86-29.19-15.06C513.1,71,489,52.77,475.23,87c-1.48-8.61-20-5.52-24.12,8.62-6.64-4-24.2,12.76-2.55,17.22,27.64,5.69,91.57,8.62,104.18-10.06S542.52,91.45,542.52,91.45Z"/><path class="ch" d="M635.94,76.43c1.14-7.07-5.25-17.56-18.4-9.49-.15-3.4-15.37-14.89-24,6.7-.94-5.43-12.6-3.48-15.21,5.43-4.19-2.5-15.25,8-1.61,10.85,17.43,3.6,57.73,5.44,65.68-6.34S635.94,76.43,635.94,76.43Z"/><polygon class="ci" points="758.7 43.9 760.88 63.48 746.68 56.53 758.7 43.9"/><path class="cj" d="M669.39,42.43l58,40.52a5,5,0,0,0,7.05-1.39L773,21.76a2,2,0,0,0-2.13-3Z"/><polygon class="ck" points="758.7 43.9 669.39 42.43 752.51 53.57 753.35 58.97 758.7 43.9"/><polygon class="cl" points="748.81 59.27 760.88 63.48 752.51 53.57 748.81 59.27"/><path class="cm" d="M778.12,62.07l5-.15a1,1,0,0,1,.06,2h0l-5,.15h0a1,1,0,1,1-.06-2Z"/><path class="cm" d="M788.14,61.84l5,0a1,1,0,0,1,1,1,1,1,0,0,1-1,1h0l-5,0h0a1,1,0,1,1,0-2Z"/><path class="cm" d="M798.15,61.82l5,.06a1,1,0,1,1,0,2h0l-5,0h0a1,1,0,0,1,0-2Z"/><path class="cm" d="M808.16,62l5,.15a1,1,0,1,1-.06,2h0l-5-.14h0a1,1,0,0,1-1-1,1,1,0,0,1,1-1Z"/><path class="cm" d="M818.17,62.31l5,.23a1,1,0,0,1,.94,1,1,1,0,0,1-1,.94h0l-5-.22h0a1,1,0,0,1-.94-1,1,1,0,0,1,1-.94Z"/><path class="cm" d="M828.17,62.8l5,.31a1,1,0,1,1-.12,2h0l-5-.31h0a1,1,0,0,1,.12-2Z"/><path class="cm" d="M838.16,63.47l5,.39a1,1,0,0,1-.15,2h0l-5-.39h0a1,1,0,1,1,.15-1.95Z"/><path class="cm" d="M848.14,64.3l5,.49a1,1,0,0,1,.87,1.06,1,1,0,0,1-1.06.87h0l-5-.48h0a1,1,0,0,1,.19-1.94Z"/><path class="cm" d="M858.11,65.32l5,.59a1,1,0,1,1-.22,1.92h0l-5-.58h0a1,1,0,0,1,.23-1.93Z"/><path class="cm" d="M868.05,66.54l5,.69a1,1,0,1,1-.26,1.91h0l-4.94-.68h0a1,1,0,1,1,.26-1.92Z"/><path class="cm" d="M878,68l4.95.8a1,1,0,0,1,.79,1.11,1,1,0,0,1-1.1.79h0l-4.93-.79h0A1,1,0,1,1,878,68Z"/><path class="cm" d="M887.85,69.64l4.93.92a1,1,0,0,1,.76,1.12.94.94,0,0,1-1.11.76h0l-4.9-.92h0a1,1,0,0,1-.77-1.12,1,1,0,0,1,1.12-.76Z"/><path class="cm" d="M897.69,71.55l4.9,1.06a1,1,0,1,1-.4,1.86h0l-4.88-1h0a1,1,0,0,1,.4-1.87Z"/><path class="cm" d="M907.48,73.74,912.35,75a1,1,0,0,1-.46,1.85h0L907,75.6h0a1,1,0,0,1,.46-1.85Z"/><path class="cm" d="M917.19,76.25,922,77.63a.95.95,0,0,1-.52,1.82h0l-4.79-1.36h0A1,1,0,0,1,916,76.9a.94.94,0,0,1,1.17-.65Z"/><path class="cm" d="M926.82,79.1l4.77,1.57a.94.94,0,1,1-.59,1.79h0l-4.73-1.55h0a.94.94,0,1,1,.59-1.79Z"/><path class="cm" d="M936.32,82.34l4.7,1.79a.94.94,0,1,1-.67,1.75h0l-4.66-1.77h0a.94.94,0,0,1,.67-1.76Z"/><path class="cm" d="M945.67,86l4.6,2a.94.94,0,0,1-.76,1.71h0l-4.55-2h0a.94.94,0,1,1,.76-1.72Z"/><path class="cm" d="M954.8,90.24l4.47,2.32a.93.93,0,0,1-.86,1.66l0,0L954,91.91h0a.93.93,0,1,1,.86-1.66Z"/><path class="cm" d="M963.65,95c1.43.88,2.87,1.75,4.29,2.65a.93.93,0,0,1-1,1.56h0c-1.4-.89-2.82-1.74-4.22-2.61l0,0a.93.93,0,0,1,1-1.58Z"/><path class="cm" d="M972.13,100.43l4.15,2.82a.93.93,0,1,1-1,1.53h0l-4.12-2.8h0a.93.93,0,0,1,1-1.53Z"/><path class="cm" d="M980.37,106.16l4,3a.92.92,0,1,1-1.1,1.48h0l-4-3,0,0a.92.92,0,1,1,1.1-1.48Z"/><path class="cm" d="M988.36,112.25l3.88,3.2a.93.93,0,0,1,.12,1.3.92.92,0,0,1-1.29.12l0,0-3.84-3.16,0,0a.92.92,0,0,1-.13-1.29.93.93,0,0,1,1.3-.13Z"/><path class="cm" d="M996,118.77l3.67,3.43a.91.91,0,1,1-1.24,1.34l0,0-3.63-3.39,0,0a.93.93,0,0,1,0-1.3.92.92,0,0,1,1.3,0Z"/><path class="cm" d="M1003.25,125.77l3.41,3.71a.92.92,0,0,1-.06,1.29.9.9,0,0,1-1.28-.06l0,0-3.36-3.65,0,0a.9.9,0,0,1,.06-1.28.91.91,0,0,1,1.29,0Z"/><path class="cm" d="M1009.9,133.34l3.05,4a.91.91,0,0,1-1.45,1.09l0,0-3-3.94,0,0a.91.91,0,0,1,.18-1.27.9.9,0,0,1,1.27.17Z"/><path class="cm" d="M1015.76,141.57l2.54,4.38a.9.9,0,1,1-1.56.9l0,0-2.48-4.27,0-.05a.9.9,0,1,1,1.56-.91Z"/><path class="cm" d="M1020.51,150.51l1.84,4.73a.9.9,0,0,1-1.68.65l0-.08-1.79-4.58,0-.07a.9.9,0,0,1,.51-1.17.89.89,0,0,1,1.16.52Z"/><path class="cm" d="M1023.75,160.12l.91,5a.9.9,0,0,1-.73,1,.89.89,0,0,1-1-.72v-.09l-.88-4.83,0-.09a.9.9,0,0,1,1.77-.32Z"/><path class="cm" d="M1025,170.21a45.49,45.49,0,0,1-.19,5.09.89.89,0,1,1-1.77-.16,47,47,0,0,0,.17-4.89.9.9,0,1,1,1.79,0Z"/><path class="cm" d="M1024.1,180.34l-1.26,4.93a.89.89,0,0,1-1.72-.44l0-.08,1.21-4.76,0-.09a.89.89,0,0,1,1.73.44Z"/><path class="cm" d="M1021.11,190l-2.16,4.6a.88.88,0,0,1-1.6-.75l0-.07,2.09-4.46,0-.07a.89.89,0,0,1,1.61.75Z"/><path class="cm" d="M1016.44,199l-2.82,4.2a.88.88,0,0,1-1.47-1l0-.05,2.75-4.1,0,0a.89.89,0,0,1,1.23-.24.88.88,0,0,1,.24,1.22Z"/><path class="cm" d="M1010.54,207.24l-3.29,3.82a.88.88,0,0,1-1.33-1.15l0,0,3.23-3.75,0,0a.87.87,0,0,1,1.24-.09.88.88,0,0,1,.09,1.24Z"/><path class="cm" d="M1003.77,214.71l-3.62,3.49a.87.87,0,0,1-1.24,0,.89.89,0,0,1,0-1.24l0,0,3.57-3.44,0,0a.87.87,0,0,1,1.24,0,.88.88,0,0,1,0,1.24Z"/><path class="cm" d="M996.39,221.54l-3.87,3.21a.87.87,0,0,1-1.23-.11.88.88,0,0,1,.12-1.23h0l3.82-3.18,0,0a.87.87,0,0,1,1.22.12.86.86,0,0,1-.11,1.22Z"/><path class="cm" d="M988.59,227.86,984.71,231h0a.87.87,0,0,1-1.09-1.35l3.9-3.15a.87.87,0,1,1,1.09,1.35h0Z"/><path class="cm" d="M980.87,234.18l-3.79,3.24h0a.86.86,0,1,1-1.12-1.31l3.8-3.26A.86.86,0,0,1,981,233a.87.87,0,0,1-.09,1.22h0Z"/><path class="cm" d="M973.36,240.74l-3.64,3.4,0,0a.85.85,0,0,1-1.21,0,.85.85,0,0,1,0-1.21l3.67-3.43a.86.86,0,0,1,1.22,0,.88.88,0,0,1,0,1.22h0Z"/><path class="cm" d="M966.18,247.64l-3.42,3.61,0,0a.85.85,0,1,1-1.24-1.17l3.45-3.66a.86.86,0,1,1,1.25,1.17h0Z"/><path class="cm" d="M959.51,255l-3,3.91,0,0a.85.85,0,0,1-1.34-1l3.09-4a.86.86,0,1,1,1.35,1.05h0Z"/><path class="cm" d="M953.73,263l-2.35,4.32,0,.08a.85.85,0,0,1-1.49-.81l2.43-4.47a.85.85,0,0,1,1.49.81h0Z"/><path class="cm" d="M949.55,271.86a32.32,32.32,0,0,0-1.16,4.73.84.84,0,0,1-1,.69.85.85,0,0,1-.7-1,35,35,0,0,1,1.22-5,.84.84,0,0,1,1.07-.54.83.83,0,0,1,.54,1.06Z"/><path class="cm" d="M948,281.43a33,33,0,0,0,.35,4.86.84.84,0,1,1-1.66.24,34.71,34.71,0,0,1-.38-5.1.83.83,0,0,1,.84-.84.84.84,0,0,1,.85.84Z"/><path class="cm" d="M949.35,291.08l1.5,4.69,0,.07a.83.83,0,0,1-.54,1.05.85.85,0,0,1-1.06-.54l-1.54-4.83a.85.85,0,0,1,.54-1.06.84.84,0,0,1,1.05.55h0Z"/><path class="cm" d="M952.69,300.37l2.06,4.52v0a.84.84,0,0,1-.41,1.11.85.85,0,0,1-1.11-.41L951.16,301a.83.83,0,1,1,1.51-.69h0Z"/><path class="cm" d="M956.94,309.36l2.26,4.46a.83.83,0,1,1-1.48.75h0l-2.26-4.45a.84.84,0,0,1,.37-1.12.83.83,0,0,1,1.12.36Z"/><path class="cm" d="M961.24,318.46l1.67,4.77a.82.82,0,0,1-.5,1,.83.83,0,0,1-1.06-.5v0l-1.64-4.67,0-.05a.83.83,0,1,1,1.56-.55Z"/><path class="cm" d="M964.28,328.08l1.1,4.92a.82.82,0,1,1-1.6.36v0l-1.09-4.83v-.05a.82.82,0,0,1,1.61-.36Z"/><path class="cm" d="M966.23,338l.61,5a.82.82,0,1,1-1.63.19v0l-.6-4.92v0a.82.82,0,0,1,1.63-.19Z"/><path class="cm" d="M967.2,348l.12,5a.82.82,0,0,1-.79.84.82.82,0,0,1-.84-.8v0l-.12-4.95v0a.81.81,0,0,1,.79-.84.82.82,0,0,1,.84.8Z"/><path class="cm" d="M967.2,358.06l-.36,5a.81.81,0,0,1-1.61-.11v0l.35-4.95v0a.82.82,0,0,1,.87-.75.8.8,0,0,1,.75.87Z"/><path class="cm" d="M966.24,368.08l-.84,5a.81.81,0,1,1-1.59-.27v0l.83-4.89v0a.81.81,0,1,1,1.59.27Z"/><path class="cm" d="M964.31,378,963,382.82a.82.82,0,0,1-1,.57.8.8,0,0,1-.56-1v0l1.31-4.78v0a.8.8,0,1,1,1.55.42Z"/><path class="cm" d="M961.41,387.61l-1.81,4.7a.8.8,0,1,1-1.49-.57v0l1.78-4.63v0a.8.8,0,0,1,1.5.58Z"/><path class="cm" d="M957.57,396.92l-2.26,4.5a.79.79,0,1,1-1.42-.71v0l2.22-4.43,0,0a.8.8,0,0,1,1.07-.35.79.79,0,0,1,.36,1.07Z"/><path class="cm" d="M952.84,405.81l-2.68,4.26a.79.79,0,0,1-1.09.25.78.78,0,0,1-.25-1.09l0,0,2.63-4.2,0,0a.8.8,0,1,1,1.35.85Z"/><path class="cm" d="M947.29,414.2l-3.06,4a.79.79,0,1,1-1.25-1l0,0,3-3.94,0,0a.79.79,0,0,1,1.26,1Z"/><path class="cm" d="M941,422.06l-3.38,3.72a.79.79,0,0,1-1.11.05.78.78,0,0,1-.06-1.11l0,0,3.34-3.68,0,0a.79.79,0,1,1,1.16,1.06Z"/><path class="cm" d="M934.08,429.36l-3.67,3.43a.78.78,0,1,1-1.07-1.14l0,0,3.63-3.4,0,0a.79.79,0,1,1,1.07,1.15Z"/><path class="cm" d="M926.61,436.08l-3.91,3.16a.79.79,0,0,1-1.1-.12.78.78,0,0,1,.12-1.1h0l3.87-3.12,0,0a.78.78,0,0,1,1,1.21Z"/><path class="cm" d="M918.68,442.25l-4.11,2.89a.78.78,0,0,1-1.08-.19.77.77,0,0,1,.19-1.08l0,0,4.07-2.85,0,0a.78.78,0,0,1,1.08.19.77.77,0,0,1-.19,1.08Z"/><path class="cm" d="M910.37,447.89l-4.28,2.63a.77.77,0,1,1-.81-1.31h0l4.24-2.61,0,0a.77.77,0,0,1,.81,1.32Z"/><path class="cm" d="M901.74,453l-4.41,2.39a.77.77,0,0,1-.73-1.35h0l4.37-2.38h0a.77.77,0,0,1,1,.31.78.78,0,0,1-.31,1Z"/><path class="cm" d="M892.86,457.69l-4.52,2.17a.77.77,0,0,1-1-.36.76.76,0,0,1,.36-1h0l4.49-2.15h0a.76.76,0,1,1,.66,1.38Z"/><path class="cm" d="M883.76,461.92l-4.61,2a.75.75,0,0,1-1-.4.77.77,0,0,1,.4-1h0l4.58-2h0a.76.76,0,1,1,.59,1.4Z"/><path class="cm" d="M874.49,465.75l-4.69,1.77a.75.75,0,0,1-1-.44.76.76,0,0,1,.44-1h0l4.66-1.76h0a.75.75,0,0,1,1,.44.76.76,0,0,1-.44,1Z"/><path class="cm" d="M865.08,469.2l-4.75,1.6a.75.75,0,0,1-1-.47.76.76,0,0,1,.47-1h0l4.72-1.59h0a.76.76,0,0,1,1,.48.75.75,0,0,1-.48.95Z"/><path class="cn" d="M830.09,657.23a2,2,0,0,0,2-2V414.48a2,2,0,1,0-4,0V655.21A2,2,0,0,0,830.09,657.23Z"/><path class="co" d="M884.67,657.23a2,2,0,0,0,2-2V414.48a2,2,0,1,0-4,0V655.21A2,2,0,0,0,884.67,657.23Z"/><path class="cp" d="M1018.77,658.76a2,2,0,0,0,.78-.17,2,2,0,0,0,1.07-2.64l-103-242.26a2,2,0,0,0-3.71,1.57l103,242.27A2,2,0,0,0,1018.77,658.76Z"/><path class="cq" d="M955.15,658.76a2,2,0,0,0,.79-.17A2,2,0,0,0,957,656L854,413.69a2,2,0,0,0-3.71,1.57l103,242.27A2,2,0,0,0,955.15,658.76Z"/><path class="cr" d="M827,416.69h94.35a2.84,2.84,0,0,0,2.84-2.84h0a2.84,2.84,0,0,0-2.84-2.84H827a2.84,2.84,0,0,0-2.83,2.84h0A2.84,2.84,0,0,0,827,416.69Z"/><path class="cs" d="M867.71,453.53h63.81a2,2,0,0,0,0-4H867.71a2,2,0,0,0,0,4Z"/><rect class="ct" x="887.29" y="495.32" width="63.81" height="4.03"/><rect class="cu" x="906.25" y="541.14" width="63.81" height="4.03"/><path class="cv" d="M926.12,591h63.81a2,2,0,0,0,0-4H926.12a2,2,0,0,0,0,4Z"/><path class="cw" d="M945.34,636.81h63.8a2,2,0,1,0,0-4h-63.8a2,2,0,1,0,0,4Z"/><path class="cx" d="M838.4,408.8c3.91.34,10.7.89,16.06,1.13a15.65,15.65,0,0,0,6.14-.6c0,.12,0,.23,0,.34a1.11,1.11,0,0,1-1.06,1,185.31,185.31,0,0,1-21,0,.79.79,0,0,1-.64-1.18A7,7,0,0,1,838.4,408.8Z"/><path class="cy" d="M854.46,409.93c-5.36-.24-12.15-.79-16.06-1.13,3.84-4.72,16.06-7.9,16.06-7.9h3.45a14.54,14.54,0,0,1,2.69,8.43A15.65,15.65,0,0,1,854.46,409.93Z"/><path class="cz" d="M858.49,395.27l-.33,6.39a1.45,1.45,0,0,1-1.24,1.37,5.6,5.6,0,0,1-2.59-.22,1.72,1.72,0,0,1-1.16-1.32l-1.12-6.22Z"/><path class="da" d="M903.29,409.88a3.12,3.12,0,0,0,2.79-2.06v0a2.21,2.21,0,0,1-1.48,2.52,9.74,9.74,0,0,1-4.12.64,4.08,4.08,0,0,1-3.08-1.42h0C898.66,410.2,900.46,410.27,903.29,409.88Z"/><path class="db" d="M895.29,395.23h2.84c4.34-.09,7.06,9,8,12.59a3.12,3.12,0,0,1-2.79,2.06c-2.83.39-4.63.32-5.9-.31-2.35-3.08-3.51-7.6-4.06-10.23A3.58,3.58,0,0,1,895.29,395.23Z"/><path class="dc" d="M897.77,389.3l1.58,6.28a1.71,1.71,0,0,1-.89,1.93,6.07,6.07,0,0,1-3.27.8,1.43,1.43,0,0,1-1.16-.95l-2.32-6.61Z"/><path class="dd" d="M899.65,391.12c-2,1.74-8.36,2-8.36,2-23-55.27-32.44-63.12-32.44-63.12,3.32,20.86.53,67,.53,67-3.8,1.68-8.69,0-8.69,0a356.05,356.05,0,0,0-11.76-87.41c15.56-.35,23.84-5.67,26.54-7.81C878.44,322.7,899.65,391.12,899.65,391.12Z"/><path class="de" d="M861.52,238.24c2.94,14.69,1.89,41,1.19,53-.19,3.37,2.16,8,4.06,11.24a1,1,0,0,1-.4,1.4c-3.19,1.64-14,6.71-26.48,7.34a1.76,1.76,0,0,1-1.79-1.33c-9.28-34.63-20.05-56.77-20.05-56.77C829.94,234.11,861.52,238.24,861.52,238.24Z"/><path class="df" d="M857.28,328.66a.73.73,0,0,0,.63-1.12,23.31,23.31,0,0,0-9.13-7.92.74.74,0,1,0-.64,1.33,22.2,22.2,0,0,1,8.51,7.36A.73.73,0,0,0,857.28,328.66Z"/><path class="dg" d="M880,280.4c-.94,6.85-3.74,14.32-9.33,22.25l-2.13-1.74a65.41,65.41,0,0,0,1.06-21.25C873,279,877.12,279.68,880,280.4Z"/><path class="dh" d="M858.23,256.36l3.29-18.12S883.5,255,880,280.4c-2.87-.72-7-1.42-10.4-.74C868.59,271.52,865.58,262.68,858.23,256.36Z"/><path class="di" d="M818.05,253.1l8.48,18.28c-1.37,11-7.3,15.8-13.69,17.63a38.8,38.8,0,0,0-2.85-11.9C818.16,268.68,818.05,253.1,818.05,253.1Z"/><path class="dj" d="M810,277.11a38.8,38.8,0,0,1,2.85,11.9c-17.05,6.62-21.56-6.21-21.56-6.21l3.15-.56C801.55,283,806.52,280.7,810,277.11Z"/><path class="dk" d="M825.86,230.54,830,245.6a2.93,2.93,0,0,0,3.92,2,58.83,58.83,0,0,0,5.9-2.7,3.94,3.94,0,0,0,1.39-5.67l-8.51-12.7Z"/><path class="dl" d="M783.47,272.72l105,38.2A8,8,0,0,1,893,321.8l-.32.7a7.46,7.46,0,0,1-9.93,3.69L780.82,279Z"/><ellipse class="dm" cx="735.22" cy="249.74" rx="51.82" ry="50.88"/><path class="dn" d="M677.56,249.74c0,31.27,25.81,56.62,57.66,56.62s57.66-25.35,57.66-56.62-25.82-56.62-57.66-56.62S677.56,218.47,677.56,249.74Zm8.47,0c0-26.68,22-48.3,49.19-48.3s49.19,21.62,49.19,48.3-22,48.3-49.19,48.3S686,276.41,686,249.74Z"/><path class="n" d="M788.49,256.87h-.06a.49.49,0,0,1-.43-.56c.17-1.31.28-2.66.35-4a.47.47,0,0,1,.52-.47.5.5,0,0,1,.48.52c-.07,1.36-.19,2.73-.36,4.07A.51.51,0,0,1,788.49,256.87ZM788.1,241a.49.49,0,0,1-.49-.41,51.43,51.43,0,0,0-3.06-10.46h0a53,53,0,0,0-49.33-32.65,53.77,53.77,0,0,0-28.57,8.17.51.51,0,0,1-.69-.16.49.49,0,0,1,.16-.69,54.76,54.76,0,0,1,29.1-8.32,54,54,0,0,1,50.25,33.26h0a51.41,51.41,0,0,1,3.12,10.67.5.5,0,0,1-.4.58Z"/><path class="do" d="M869.41,300.61l-9.92-.81-4.3,4s1,1.41,4.19.6a45,45,0,0,1,7.54-1s4.39,2,4.44-1.73Z"/><path class="dp" d="M792.54,285.14c-.85.67-3.79-.73-5.59-1.69a2.07,2.07,0,0,1-1-2.45c.43-1.36,1.15-3.13,2-3.35C789.46,277.28,796.08,282.38,792.54,285.14Z"/><path class="n" d="M886.36,324.84a.5.5,0,0,1-.47-.34.51.51,0,0,1,.31-.64c2.92-1,4.44-2.63,4.54-4.82a5.37,5.37,0,0,0-3.51-5.15L874.62,309A.5.5,0,0,1,875,308l12.6,4.92a6.34,6.34,0,0,1,4.14,6.12c-.07,1.82-1,4.29-5.2,5.73A.51.51,0,0,1,886.36,324.84Z"/><path class="n" d="M870.92,307.49a.57.57,0,0,1-.18,0l-1.63-.64a.5.5,0,0,1-.29-.64.5.5,0,0,1,.65-.29l1.63.64a.5.5,0,0,1,.29.65A.51.51,0,0,1,870.92,307.49Z"/><path class="dq" d="M825,215.76s-3.39,7.79-3.62,11.88-1.11,6.74,3.62,7.56,8.71-1.53,10.86-5.6c0,0,3.38-6.28,2.63-8.85S825,215.76,825,215.76Z"/><path class="dr" d="M834.23,226.67h-.6s2.46-5,.3-5.94-10.73-2.63-12.58-5.68a5.65,5.65,0,0,1,2.18-7.77.32.32,0,0,1,.41.15l.2.37a.32.32,0,0,0,.59-.06h0a.32.32,0,0,1,.57-.09c.57.91,2.1,2.39,6.21,3.15,5.83,1.07,9.69,3.43,9.79,7.46a.32.32,0,0,0,.49.27c.43-.26,1.12-.39,2,.39,1.6,1.34.95,4.84-2.56,7.71a.31.31,0,0,0,0,.51c.64.42,1.59,1.4-.87,2.72s-4,1.2-4.56,1a.31.31,0,0,1-.25-.33l.22-3.57a.32.32,0,0,0-.32-.34Z"/><path class="ds" d="M834.08,227.41s1.3-5,3.53-3.58-1.16,5.58-3,5.77Z"/><path class="dt" d="M635.8,169.18H604.32a4.36,4.36,0,0,1-4.36-4.36V133.26a4.36,4.36,0,0,1,4-4.34l33.54-2.72a4.36,4.36,0,0,1,4.7,4.61l-2.06,34.28A4.35,4.35,0,0,1,635.8,169.18Z"/><path class="n" d="M608.81,163a3.33,3.33,0,0,1-3.33-3.33V139.47a1,1,0,1,1,2.06,0v20.24a1.24,1.24,0,0,0,.4.92,1.26,1.26,0,0,0,.94.34l24-1.43a1.27,1.27,0,0,0,1.2-1.26V138.41a1.27,1.27,0,0,0-1.4-1.26l-19.94,2a1.27,1.27,0,0,0-.91,2l7.61,10.5a1.25,1.25,0,0,0,1,.52h0a1.25,1.25,0,0,0,1-.5l8.38-11.17a1,1,0,0,1,1.66,1.24l-8.38,11.17a3.34,3.34,0,0,1-5.37,0l-7.61-10.5a3.33,3.33,0,0,1,2.37-5.27l20-2a3.33,3.33,0,0,1,3.66,3.32v19.87a3.35,3.35,0,0,1-3.13,3.33L609,163Z"/></svg>